<?xml version="1.0" standalone="no"?>
<!DOCTYPE svg PUBLIC "-//W3C//DTD SVG 20010904//EN"
 "http://www.w3.org/TR/2001/REC-SVG-20010904/DTD/svg10.dtd">
<svg version="1.0" xmlns="http://www.w3.org/2000/svg"
 width="512.000000pt" height="512.000000pt" viewBox="0 0 512.000000 512.000000"
 preserveAspectRatio="xMidYMid meet">
<metadata>
Created by potrace 1.14, written by Peter Selinger 2001-2017
</metadata>
<g transform="translate(0.000000,512.000000) scale(0.100000,-0.100000)"
fill="#000000" stroke="none">
<path d="M0 2560 l0 -2560 2560 0 2560 0 0 775 c0 613 -3 775 -12 775 -10 0
-10 2 0 9 19 12 14 111 -6 104 -11 -5 -11 -7 -1 -14 8 -4 10 -12 5 -16 -4 -4
-13 -1 -19 8 -7 9 -18 14 -24 12 -23 -8 -14 10 24 49 20 21 34 38 30 38 -8 0
-77 -71 -77 -80 1 -14 18 -31 31 -28 7 2 14 -6 15 -18 0 -12 5 -28 9 -35 4 -8
-4 0 -19 16 -21 25 -27 28 -35 15 -8 -12 -13 -12 -23 -2 -6 6 -17 12 -22 12
-6 0 -2 -7 9 -16 17 -12 18 -16 5 -24 -8 -5 -11 -12 -7 -17 5 -4 12 -1 17 7 5
8 12 11 16 7 4 -4 -2 -14 -14 -23 -22 -15 -32 -41 -10 -28 7 4 8 3 4 -4 -5 -8
-13 -8 -31 0 -26 11 -25 31 0 21 8 -3 15 -1 15 5 0 17 -24 20 -40 6 -8 -7 -24
-21 -36 -32 -16 -14 -23 -16 -32 -6 -8 9 -6 16 11 28 12 8 17 15 11 15 -5 1
-19 -5 -29 -13 -18 -13 -18 -15 -2 -40 22 -32 31 -33 45 -1 13 28 35 35 25 8
-11 -29 -35 -51 -49 -46 -9 3 -14 -3 -14 -18 0 -18 -3 -20 -9 -10 -5 7 -6 22
-3 34 3 14 1 18 -6 13 -7 -4 -12 -14 -12 -22 0 -8 -4 -14 -8 -14 -18 0 -21 14
-7 34 17 24 19 36 5 36 -5 0 -10 -7 -10 -15 0 -8 -7 -15 -15 -15 -8 0 -15 7
-15 15 0 8 -4 15 -10 15 -5 0 -10 -4 -10 -9 0 -5 -10 -11 -21 -14 l-21 -6 21
22 c13 15 18 30 14 45 -3 14 -1 22 8 22 7 0 10 -3 6 -6 -8 -8 25 -44 40 -44 7
0 13 5 13 11 0 6 -6 9 -14 6 -21 -8 -40 41 -22 58 8 8 12 24 9 35 -3 12 0 20
7 20 7 0 10 7 6 16 -7 19 22 57 36 48 6 -4 5 3 -1 15 -10 17 -9 21 4 21 18 0
20 16 3 24 -10 5 -10 7 0 12 6 3 10 9 7 14 -3 4 11 70 30 146 19 77 37 168 40
204 4 36 11 83 15 105 17 74 4 448 -19 590 -37 225 -50 274 -124 475 -37 102
-136 305 -143 297 -4 -3 3 -23 14 -44 81 -151 167 -416 203 -623 25 -144 37
-528 18 -590 -5 -19 -10 -50 -11 -67 0 -31 -11 -43 -22 -25 -3 5 -6 87 -7 183
-8 748 -290 1373 -818 1813 -334 278 -793 481 -1199 532 -138 17 -419 18 -564
3 -111 -12 -445 -84 -466 -101 -7 -6 -15 -8 -19 -4 -25 25 219 104 457 147
147 27 398 36 556 19 127 -12 314 -52 454 -95 47 -14 90 -27 97 -28 7 -2 16
-6 19 -10 4 -4 14 -7 23 -7 29 0 -4 17 -104 53 -127 46 -302 92 -430 113 -109
19 -435 25 -560 11 -101 -11 -325 -54 -392 -75 -38 -12 -51 -1 -51 42 0 19 3
24 9 15 7 -11 13 -11 36 2 15 9 34 15 41 13 7 -1 8 0 2 3 -16 8 -12 26 5 19 8
-3 21 4 29 16 8 11 19 17 25 13 6 -3 11 1 11 10 0 8 12 20 26 25 26 10 48 5
39 -9 -2 -5 5 -8 17 -7 35 2 31 23 -7 36 -22 7 -33 16 -28 23 5 8 8 8 11 -1 2
-7 16 -12 30 -12 25 1 25 2 10 14 -22 16 -22 22 -4 29 10 4 13 1 9 -9 -3 -8 1
-14 9 -14 21 0 29 11 19 24 -5 7 -1 19 12 31 l20 20 -12 -23 c-9 -17 -10 -27
-1 -37 9 -11 7 -16 -9 -25 -22 -11 -28 -30 -10 -30 5 0 8 4 5 8 -3 5 6 15 19
22 14 7 25 18 25 23 0 5 8 3 17 -4 10 -8 14 -9 10 -2 -4 7 2 18 14 27 12 8 18
19 15 24 -3 6 2 12 11 15 10 2 -501 5 -1134 6 l-1153 1 0 -2560z m2233 2538
c4 -10 8 -9 16 2 8 11 11 12 11 2 0 -18 -21 -37 -43 -38 -14 -2 -15 1 -6 12 6
7 8 18 4 24 -3 5 -2 10 4 10 5 0 12 -6 14 -12z m-193 -108 c0 -5 -4 -10 -10
-10 -5 0 -10 5 -10 10 0 6 5 10 10 10 6 0 10 -4 10 -10z m95 0 c3 -5 1 -10 -4
-10 -6 0 -11 5 -11 10 0 6 2 10 4 10 3 0 8 -4 11 -10z m-135 -20 c0 -5 -2 -10
-4 -10 -2 0 -12 -3 -22 -7 -16 -6 -17 -5 -4 10 17 19 30 22 30 7z m-60 -40 c0
-5 -2 -10 -4 -10 -3 0 -8 5 -11 10 -3 6 -1 10 4 10 6 0 11 -4 11 -10z m-113
-87 c-9 -2 -14 -9 -11 -15 4 -7 2 -8 -5 -4 -15 10 -4 26 17 25 15 -1 15 -2 -1
-6z m-52 -13 c-3 -5 -11 -10 -16 -10 -6 0 -7 5 -4 10 3 6 11 10 16 10 6 0 7
-4 4 -10z m110 0 c7 -11 -28 -27 -76 -35 -16 -3 -29 -1 -29 5 0 5 10 10 23 10
12 0 31 7 41 15 23 18 33 19 41 5z m-181 -36 c17 -7 22 -34 6 -34 -5 0 -10 6
-10 14 0 8 -6 17 -12 19 -7 3 -10 6 -6 6 3 1 13 -2 22 -5z m66 -8 c0 -11 -19
-15 -25 -6 -3 5 1 10 9 10 9 0 16 -2 16 -4z m-80 -26 c0 -5 -4 -10 -9 -10 -6
0 -13 5 -16 10 -3 6 1 10 9 10 9 0 16 -4 16 -10z m110 -54 c0 -3 -4 -8 -10
-11 -5 -3 -10 -1 -10 4 0 6 5 11 10 11 6 0 10 -2 10 -4z m737 -37 c6 -6 70
-11 149 -13 76 -2 171 -9 209 -15 138 -22 332 -74 440 -118 181 -73 292 -133
245 -133 -5 0 -19 -18 -30 -39 -11 -22 -33 -49 -48 -60 -28 -20 -47 -54 -54
-96 -5 -29 -32 -25 -36 5 -5 33 -22 51 -22 22 0 -29 -14 -28 -38 3 -26 33 -35
32 -68 -11 -59 -73 -68 -78 -80 -42 -3 12 -13 28 -20 36 -29 28 -11 43 25 20
36 -22 49 -5 49 67 0 58 -2 68 -19 72 -21 6 -24 24 -9 54 8 14 17 18 34 13 28
-7 42 18 21 36 -11 9 -19 6 -35 -10 -28 -28 -53 -11 -27 18 16 18 16 20 0 34
-10 9 -39 19 -64 23 -40 6 -52 3 -87 -19 -37 -23 -72 -69 -72 -94 0 -4 13 -23
30 -42 27 -30 28 -35 15 -50 -8 -9 -15 -24 -15 -34 0 -26 -24 -29 -66 -9 -28
13 -38 25 -37 39 3 31 -47 118 -100 173 -51 54 -59 57 -162 52 -43 -2 -54 -7
-80 -36 -81 -92 -193 -127 -170 -54 6 18 12 20 40 15 28 -6 35 -3 40 15 9 28
-1 35 -59 43 l-49 6 7 -69 c4 -46 2 -72 -5 -76 -19 -12 -22 3 -27 122 -4 93
-8 120 -21 130 -20 15 -7 21 59 26 95 7 126 7 137 -4z m-280 -80 c11 -23 31
-219 22 -219 -2 0 -60 -11 -129 -25 -69 -13 -158 -25 -198 -25 -49 0 -91 -7
-130 -21 -80 -30 -123 -34 -162 -14 -54 28 -105 4 -137 -63 -9 -18 -27 -38
-41 -43 l-25 -9 38 -37 c33 -32 39 -34 60 -23 27 14 53 4 36 -13 -18 -18 -13
-33 14 -45 14 -6 25 -17 25 -24 -1 -12 -111 -89 -138 -96 -9 -3 -11 4 -7 21 5
17 2 26 -10 31 -13 4 -15 13 -10 36 10 46 -8 37 -86 -41 -39 -39 -73 -68 -76
-65 -9 8 84 111 128 142 33 23 42 25 49 14 5 -8 12 -11 17 -7 4 5 3 11 -3 15
-6 4 -13 15 -17 25 -5 13 -16 17 -42 15 -44 -3 -87 34 -79 68 4 16 0 25 -15
34 -24 12 -45 4 -75 -29 -19 -21 -46 -28 -46 -12 0 16 94 81 118 81 14 0 31
-8 38 -17 12 -17 13 -17 14 -1 0 9 -5 20 -11 24 -13 7 87 74 112 74 5 0 18 9
29 20 11 11 29 20 40 20 11 0 20 5 20 10 0 6 6 10 14 10 8 0 16 7 20 15 3 8
10 15 16 15 6 0 30 9 53 19 83 38 167 71 184 74 10 1 23 5 28 9 13 8 233 75
265 81 54 10 84 3 97 -24z m524 -69 c10 -6 19 -15 19 -21 0 -5 16 -26 36 -46
20 -20 45 -56 56 -79 17 -39 17 -46 4 -72 -19 -38 -7 -59 23 -40 19 11 24 11
35 -4 7 -10 18 -18 25 -18 13 0 15 -36 2 -44 -12 -8 -81 22 -81 34 0 6 -11 8
-24 4 -13 -3 -27 -1 -30 5 -4 6 -21 11 -37 11 -39 0 -34 -23 6 -30 34 -6 57
-36 36 -49 -10 -7 -11 -13 -1 -31 21 -40 -4 -47 -52 -14 -74 50 -72 49 -64 20
5 -19 3 -26 -8 -26 -8 0 -17 7 -20 16 -5 13 -9 14 -21 4 -18 -15 -35 -5 -36
23 0 19 -2 19 -11 -5 -9 -26 -31 -37 -41 -20 -3 4 -8 26 -12 50 -7 41 -6 43
29 57 48 20 56 19 56 -9 0 -34 17 -41 31 -14 7 13 19 28 28 34 22 17 -3 45
-37 42 -20 -2 -32 6 -54 40 -18 25 -37 42 -49 42 -10 0 -19 6 -19 14 0 8 19
16 52 22 54 9 75 30 37 36 -12 2 -24 9 -27 16 -3 9 14 12 62 12 52 0 66 3 66
15 0 11 -12 15 -45 15 -25 0 -45 5 -45 10 0 13 86 13 111 0z m389 -36 c0 -9 9
-28 21 -42 20 -26 20 -27 1 -35 -13 -6 -18 -16 -14 -33 3 -17 0 -24 -12 -24
-9 0 -16 6 -16 13 -1 17 -41 63 -62 70 -10 4 -18 11 -18 17 0 15 36 12 50 -5
13 -16 40 -21 40 -7 0 4 -7 16 -15 26 -20 27 -19 36 5 36 12 0 20 -7 20 -16z
m526 -126 c51 -35 70 -72 60 -114 -8 -32 -61 -64 -108 -64 -35 0 -38 -3 -67
-62 -36 -72 -37 -78 -11 -110 10 -14 21 -42 23 -62 7 -63 23 -61 45 5 9 26 9
44 2 63 -12 33 -13 146 -1 146 5 0 14 -7 21 -15 20 -24 36 -18 85 28 36 35 45
50 45 78 l0 34 23 -23 c12 -12 58 -51 102 -86 145 -116 403 -398 428 -468 4
-10 15 -18 26 -18 15 0 35 -29 83 -117 72 -135 75 -143 54 -143 -9 0 -24 16
-33 35 -11 23 -24 35 -37 35 -10 0 -61 -22 -112 -50 -58 -31 -96 -45 -100 -39
-9 15 -1 21 104 74 50 26 92 53 92 61 0 25 -41 99 -66 117 -20 15 -27 15 -44
5 -28 -18 -25 -34 15 -74 19 -19 35 -41 35 -49 0 -18 -71 -60 -136 -81 -71
-24 -80 -34 -60 -72 9 -17 25 -36 36 -42 21 -11 27 -9 130 56 57 36 90 43 90
20 0 -20 48 -56 75 -56 31 0 37 -10 78 -135 67 -204 115 -424 122 -565 3 -47
9 -86 15 -88 25 -9 5 -40 -49 -75 -32 -20 -66 -46 -76 -57 -16 -18 -16 -20 -1
-26 9 -4 24 1 34 9 17 16 83 47 99 47 4 0 2 -5 -5 -12 -7 -7 -12 -34 -12 -60
0 -26 -4 -48 -10 -48 -16 0 -12 -15 10 -40 23 -26 25 -45 8 -56 -7 -4 -39 23
-82 70 l-71 77 -76 8 c-84 9 -99 15 -99 37 0 17 -12 18 -28 2 -17 -17 -15 -64
4 -82 11 -12 35 -16 87 -16 88 0 98 -6 164 -102 43 -62 50 -79 48 -113 -4 -50
-27 -153 -61 -270 -14 -49 -28 -101 -31 -116 -4 -22 -10 -25 -41 -24 -56 2
-79 13 -91 43 -9 21 -9 36 -1 56 10 27 9 28 -12 22 -13 -4 -33 -9 -45 -11 -30
-4 -43 -14 -43 -31 0 -8 10 -14 24 -14 16 0 26 -7 30 -22 11 -42 7 -48 -28
-48 -67 0 -96 80 -49 132 21 23 5 23 -25 0 -16 -12 -25 -33 -30 -67 -6 -43
-11 -51 -36 -60 -24 -8 -31 -6 -47 14 -11 14 -19 39 -19 62 0 37 -2 39 -31 39
l-31 0 4 -60 c5 -69 24 -97 76 -106 25 -5 45 -2 68 11 30 16 34 16 55 1 30
-21 68 -20 91 1 18 16 21 16 47 0 16 -9 39 -17 50 -17 12 0 21 -2 21 -4 0 -3
-41 -78 -99 -181 -30 -53 -93 -148 -107 -160 -6 -5 -36 -44 -66 -85 -31 -41
-87 -108 -127 -149 -39 -40 -71 -76 -71 -80 -1 -3 -18 -26 -39 -50 l-38 -43 1
73 c2 81 12 105 63 162 49 55 70 117 36 102 -10 -4 -28 -7 -40 -7 -12 1 -25
-3 -28 -8 -3 -6 -16 -10 -29 -10 -12 0 -26 -4 -31 -9 -14 -13 -95 -25 -95 -13
0 5 18 14 39 21 50 14 63 41 21 41 -17 0 -30 5 -30 11 0 14 36 46 61 54 11 4
19 11 19 16 0 14 48 11 53 -4 2 -6 8 -9 12 -5 4 4 -6 19 -23 33 -17 14 -34 35
-37 45 -7 21 -30 27 -40 10 -3 -5 6 -15 21 -23 l26 -14 -66 -46 c-70 -49 -86
-56 -86 -34 1 16 18 37 54 65 36 27 25 29 -12 2 -15 -11 -42 -23 -59 -26 -42
-8 -53 16 -29 57 19 33 8 38 -29 13 -26 -17 -45 -12 -45 12 0 8 -6 14 -14 14
-8 0 -29 19 -46 43 -18 23 -30 34 -26 24 12 -37 18 -67 12 -67 -8 0 -36 55
-57 114 -14 41 -18 46 -18 24 -1 -39 -14 -35 -39 15 l-23 42 5 -42 c5 -48 -9
-57 -24 -15 -24 65 -30 68 -24 8 7 -74 -8 -67 -25 11 -19 86 -33 100 -26 26 3
-35 4 -63 1 -63 -3 0 -12 21 -19 47 -17 58 -37 68 -37 19 0 -20 -4 -36 -9 -36
-11 0 -74 43 -128 87 -52 42 -60 69 -69 226 -6 115 -7 118 -25 101 -18 -17
-19 -16 -20 22 0 35 -1 37 -11 17 -10 -21 -12 -22 -24 -5 -8 10 -13 12 -14 5
0 -7 -4 -13 -10 -13 -5 0 -10 21 -10 46 0 27 -4 43 -10 39 -5 -3 -10 -19 -10
-36 0 -16 -4 -29 -9 -29 -14 0 -24 38 -17 65 9 35 -11 40 -28 7 -12 -24 -13
-41 -4 -102 9 -63 8 -84 -7 -144 -21 -84 -40 -123 -71 -153 -28 -26 -29 -42
-9 -109 8 -27 15 -59 15 -70 0 -12 7 -27 15 -34 8 -7 15 -27 15 -45 0 -20 9
-42 23 -57 13 -14 29 -39 36 -57 15 -34 35 -41 46 -13 6 15 8 15 26 -7 20 -24
25 -66 10 -75 -5 -3 -14 1 -21 9 -11 13 -14 13 -25 -2 -12 -16 -14 -16 -39 1
-20 12 -31 14 -40 7 -9 -8 -20 -3 -41 19 -17 18 -35 28 -45 25 -11 -3 -19 4
-26 22 l-9 27 -36 -32 c-20 -18 -51 -35 -69 -39 l-33 -6 7 56 c9 68 -4 74 -29
15 -13 -32 -19 -38 -22 -24 -5 19 23 159 37 186 14 28 20 75 11 89 -16 25 -31
1 -31 -50 0 -48 -32 -164 -51 -183 -14 -15 -11 13 11 100 14 57 20 111 19 194
0 119 -17 132 -18 15 -2 -103 -30 -243 -54 -270 -6 -6 -7 1 -3 20 28 130 35
197 36 319 0 77 -3 136 -7 133 -3 -4 -12 -82 -19 -175 -8 -109 -18 -182 -29
-210 -22 -55 -29 -48 -14 14 6 27 14 120 18 206 6 148 7 158 30 182 29 31 41
33 41 6 0 -23 25 -27 34 -5 10 26 43 17 56 -16 21 -49 16 -86 -13 -117 -47
-49 -27 -72 24 -29 71 61 115 164 123 292 5 80 45 224 84 302 78 157 102 192
102 147 0 -9 12 -35 26 -58 14 -22 48 -76 75 -118 27 -43 49 -83 49 -89 0 -7
6 -20 13 -28 13 -15 37 -88 51 -153 10 -43 43 -73 161 -144 130 -77 152 -97
212 -186 24 -38 51 -68 59 -68 8 0 43 -28 77 -63 79 -79 154 -137 179 -137 24
0 58 32 41 37 -7 3 -9 11 -6 19 3 9 -2 14 -16 14 -12 0 -21 5 -21 11 0 6 6 9
12 7 15 -5 43 20 34 30 -4 3 -10 1 -14 -5 -5 -7 -13 -9 -21 -4 -7 5 -10 14 -7
20 4 6 12 8 18 5 7 -5 8 -2 3 6 -4 7 -2 16 6 21 9 6 10 9 2 9 -6 0 -15 -4 -18
-10 -3 -5 -15 -15 -25 -20 -16 -8 -18 -8 -14 5 4 8 11 15 16 15 6 0 5 7 -3 16
-7 9 -21 13 -32 10 -11 -3 -26 1 -33 9 -11 11 -6 14 31 20 35 5 45 10 45 25 0
26 -17 34 -75 35 l-50 0 -3 63 c-3 59 -5 63 -25 60 -12 -2 -23 -12 -25 -23 -6
-29 -41 -105 -50 -105 -11 0 -57 62 -71 98 -16 39 -43 56 -74 47 -22 -7 -22
-7 -2 8 26 18 121 31 130 17 9 -15 25 -12 25 5 0 7 -8 19 -17 24 -28 16 -9 13
26 -5 22 -11 41 -13 64 -8 17 4 52 8 77 8 l44 1 9 49 c4 27 6 55 3 63 -8 21
-26 6 -26 -23 0 -39 -17 -28 -34 23 -19 55 -8 77 24 48 24 -22 36 -15 21 13
-15 28 -59 37 -81 17 -15 -13 -17 -27 -12 -80 4 -61 4 -65 -17 -65 -19 0 -21
6 -21 53 0 29 5 58 11 64 8 8 4 15 -12 27 -13 9 -29 16 -36 16 -12 0 -28 -34
-32 -71 0 -6 -8 -9 -16 -5 -8 3 -15 1 -15 -4 0 -6 7 -10 15 -10 8 0 15 -4 15
-10 0 -5 -7 -10 -15 -10 -18 0 -19 -12 -3 -28 7 -7 8 -12 3 -12 -21 0 -32 16
-29 43 3 31 -10 36 -25 10 -6 -10 -11 -13 -11 -6 0 6 4 14 9 18 6 3 9 15 8 26
-1 19 -2 19 -14 3 -7 -10 -13 -21 -13 -25 0 -4 -6 -9 -14 -12 -11 -4 -11 1 2
26 8 18 20 35 26 39 6 4 7 10 3 14 -4 4 -17 -5 -30 -20 -17 -19 -24 -22 -24
-12 0 9 5 16 11 16 6 0 -1 11 -16 25 -16 13 -24 26 -19 30 5 3 11 -1 14 -7 2
-7 8 -9 13 -5 5 5 -1 17 -15 28 -13 11 -21 22 -18 26 4 3 2 12 -4 20 -9 10
-15 10 -25 2 -11 -9 -14 -8 -14 0 0 7 -4 10 -9 7 -18 -11 -22 28 -5 41 10 7
14 16 10 20 -4 4 -10 2 -14 -4 -14 -23 -56 -32 -77 -17 -10 8 -15 17 -10 21 4
5 10 3 12 -3 4 -13 52 -6 54 7 1 5 2 13 3 18 0 5 4 12 8 16 4 4 1 16 -5 26 -9
15 -9 21 0 27 13 8 -3 70 -47 177 -13 33 -15 30 60 78 58 37 75 72 104 209 4
17 16 29 35 36 40 14 58 46 66 115 5 35 17 72 31 93 28 40 36 124 9 88 -8 -10
-15 -14 -15 -7 0 7 -19 17 -42 24 -24 6 -54 17 -68 25 -14 8 -37 18 -52 24
-19 6 -30 19 -36 42 l-8 33 -100 8 c-95 8 -104 7 -157 -17 -53 -23 -161 -96
-182 -123 -24 -31 -81 -63 -112 -63 -18 0 -33 2 -33 4 0 2 17 21 38 43 20 21
51 57 69 78 44 54 42 29 -2 -29 -53 -68 -27 -56 47 23 40 42 67 80 71 100 4
17 16 51 27 75 17 37 23 43 42 38 22 -5 22 -5 5 21 -17 27 -17 28 12 65 53 67
89 146 96 216 5 43 12 66 20 66 25 0 26 -99 1 -139 -4 -7 -11 -38 -16 -71 -9
-66 -45 -147 -72 -164 -10 -6 -18 -18 -18 -27 0 -9 -7 -22 -15 -29 -8 -7 -15
-18 -15 -24 0 -7 -12 -23 -26 -37 -14 -13 -30 -32 -36 -43 -10 -18 -9 -18 22
0 41 25 90 73 90 89 0 7 3 15 8 17 15 6 62 77 62 93 0 9 6 28 14 43 7 15 16
55 19 89 4 33 16 91 28 127 20 62 21 67 5 84 -9 10 -16 24 -16 30 0 7 -13 9
-35 5 -34 -6 -50 5 -103 71 -18 22 -8 46 18 46 22 0 28 26 8 33 -7 2 -21 -1
-30 -7 -22 -13 -47 16 -48 57 0 23 -4 27 -28 27 -44 0 -78 48 -60 84 7 12 6
22 -1 29 -23 23 -12 37 28 37 32 0 44 -6 70 -35 39 -45 40 -58 2 -50 -40 9
-47 -9 -14 -33 34 -23 64 -24 80 -3 10 14 16 11 45 -21 18 -21 40 -54 47 -75
8 -21 22 -50 32 -65 11 -15 19 -43 19 -66 0 -43 14 -62 33 -43 13 13 11 95 -3
99 -13 5 -13 39 0 47 15 9 12 19 -10 45 -19 22 -26 40 -15 40 2 0 20 -8 40
-17 19 -9 38 -13 42 -9 12 11 -12 41 -33 41 -34 0 -124 61 -124 84 0 19 16 12
71 -29 47 -35 54 -37 64 -23 13 17 14 14 80 -107 13 -23 36 -28 25 -5 -2 6 -5
31 -5 56 0 43 7 64 41 131 25 48 -4 42 -36 -8 -30 -48 -32 -47 -45 10 -5 23 0
35 21 57 15 16 36 29 45 29 10 0 21 9 24 21 4 12 14 19 23 17 13 -2 18 -16 20
-56 3 -46 6 -54 28 -62 32 -13 30 -13 48 6 24 23 19 35 -11 32 -20 -2 -28 2
-28 12 0 15 7 16 38 5 12 -5 17 -2 17 12 0 30 -28 62 -63 71 -18 5 -33 16 -35
25 -5 27 31 21 84 -15z m-1290 -40 c-15 -98 -17 -128 -7 -128 15 0 14 -37 -1
-42 -9 -3 -7 -21 6 -69 24 -85 30 -91 85 -87 40 3 46 0 49 -18 3 -23 -23 -35
-172 -83 -37 -13 -89 -38 -115 -56 -38 -27 -50 -32 -60 -22 -10 9 -15 8 -27
-8 -12 -17 -16 -18 -24 -5 -5 7 -5 21 -1 29 11 21 3 41 -14 41 -10 0 -17 -17
-21 -50 -7 -51 -17 -69 -29 -50 -13 21 -27 9 -22 -19 5 -21 1 -33 -16 -47 -49
-42 -126 -60 -111 -26 12 28 13 83 2 108 -13 28 2 51 34 56 32 5 33 25 1 41
-54 26 -163 -13 -163 -60 0 -14 43 -28 59 -19 17 11 25 -17 26 -87 0 -77 -7
-86 -80 -97 l-40 -6 64 -21 c59 -19 68 -20 110 -7 85 26 173 36 182 22 17 -26
8 -36 -63 -71 -97 -48 -252 -80 -323 -66 -71 13 -116 29 -148 52 -16 11 -55
32 -88 48 -32 16 -59 33 -59 38 0 5 -17 7 -37 5 -58 -7 -115 30 -128 83 -6 22
-19 50 -29 62 -49 54 51 45 115 -10 19 -16 37 -29 41 -29 3 0 25 -15 47 -34
46 -38 95 -51 225 -60 112 -7 84 16 -37 30 -51 6 -106 17 -122 25 -33 16 -47
49 -20 49 13 0 16 5 10 23 -4 12 -7 31 -8 42 -1 11 -8 25 -16 32 -13 9 -13 14
-4 24 10 10 18 7 39 -14 14 -15 30 -24 34 -22 20 12 40 -9 40 -41 0 -28 4 -34
20 -34 11 0 23 -7 27 -16 4 -10 13 -14 26 -10 13 3 25 -1 33 -12 10 -14 14
-14 28 -3 13 11 20 11 28 3 18 -18 28 -14 28 9 0 13 -11 25 -32 34 -43 17 -78
55 -84 90 -7 39 -12 45 -37 45 -29 0 -67 27 -67 47 0 24 69 81 107 88 42 8 56
0 43 -24 -5 -10 -7 -21 -4 -24 9 -9 74 25 74 39 0 7 5 16 12 20 16 10 227 84
258 91 14 2 43 13 65 23 22 10 77 32 123 50 55 22 80 36 73 43 -7 7 -14 7 -23
0 -7 -6 -33 -14 -58 -18 -25 -4 -76 -18 -113 -31 -92 -33 -102 -32 -113 13
l-9 36 -47 -44 c-27 -24 -48 -50 -48 -56 0 -6 -28 -25 -62 -42 -50 -26 -73
-31 -130 -31 -82 0 -89 15 -20 48 62 31 97 62 106 95 4 16 14 27 24 28 45 2
226 42 287 64 22 8 85 21 140 29 102 16 144 22 158 25 4 0 6 -14 3 -31z m218
3 c17 -32 13 -41 -21 -41 -24 0 -27 9 -17 48 8 30 20 28 38 -7z m510 -17 c9
-3 16 -15 16 -25 0 -20 -15 -26 -25 -9 -3 6 -15 10 -26 10 -10 0 -19 7 -19 15
0 15 26 20 54 9z m-1234 -24 c-24 -15 -37 -11 -16 5 11 8 22 12 25 9 3 -3 -1
-9 -9 -14z m-247 -24 c12 -8 39 -17 60 -20 20 -4 37 -10 37 -14 0 -4 -13 -21
-29 -38 -30 -33 -71 -49 -102 -39 -23 7 -25 33 -4 41 18 7 20 35 4 51 -6 6 -8
16 -5 22 9 14 12 14 39 -3z m1295 -109 c34 -19 67 -87 42 -87 -15 0 -50 38
-50 55 0 9 -7 18 -15 21 -15 6 -21 24 -7 24 4 -1 17 -6 30 -13z m-1628 -42
c24 -24 41 -48 37 -52 -8 -7 -97 75 -97 89 0 17 18 6 60 -37z m1497 -39 c4 -6
6 -24 5 -41 -4 -37 22 -100 43 -108 25 -10 17 -22 -25 -41 -22 -10 -40 -21
-40 -25 0 -4 -9 -17 -20 -29 -12 -12 -16 -22 -11 -22 6 0 14 6 18 13 11 17 59
47 76 47 8 0 20 7 27 15 14 17 50 11 63 -11 4 -8 13 -14 18 -14 14 0 132 -81
142 -97 4 -7 15 -13 22 -13 8 0 15 -6 15 -13 0 -7 10 -17 23 -22 31 -14 35
-71 7 -119 -12 -20 -26 -36 -31 -36 -5 0 -9 -5 -9 -11 0 -14 -57 -92 -105
-145 -30 -32 -39 -37 -53 -27 -24 15 -19 100 13 193 30 87 29 86 9 69 -13 -10
-17 -10 -25 2 -5 8 -9 24 -9 36 0 12 -5 25 -12 29 -8 5 -9 -10 -4 -57 8 -85
-13 -153 -58 -180 -61 -37 -228 -13 -262 38 -11 17 -21 22 -35 18 -11 -4 -19
-2 -19 5 0 6 -12 10 -27 8 -22 -2 -29 -9 -31 -30 -2 -17 -11 -30 -23 -33 -22
-7 -42 5 -21 12 18 7 15 27 -7 40 -11 7 -22 27 -26 45 -4 18 -14 41 -23 51
-14 16 -14 19 -2 27 8 6 37 10 63 10 47 0 48 -1 68 -45 17 -39 23 -44 43 -39
18 4 28 -1 46 -25 48 -68 177 -99 228 -56 12 11 22 24 22 29 0 6 -5 5 -12 -2
-7 -7 -34 -12 -61 -12 -45 0 -53 4 -88 43 -28 29 -38 48 -34 62 2 11 5 25 5
31 0 12 63 44 85 44 8 0 15 9 15 20 0 21 -24 28 -35 10 -10 -16 -45 -12 -45 5
0 8 5 15 10 15 6 0 10 9 10 20 0 24 -9 25 -35 5 -11 -8 -37 -26 -59 -40 -43
-29 -50 -27 -98 39 -42 58 -38 69 21 61 47 -6 48 -6 44 17 -3 16 6 34 32 61
29 30 35 44 31 65 -18 91 -18 100 0 110 24 13 133 12 141 -2z m83 -42 c0 -16
-9 -18 -29 -5 -7 5 -11 14 -7 19 9 15 36 4 36 -14z m150 -9 c10 -13 10 -19 -5
-35 -21 -23 -35 -26 -35 -6 0 8 -5 16 -12 18 -9 3 -8 9 2 21 19 21 34 21 50 2z
m-2028 -32 c-6 -2 -10 -9 -6 -14 3 -5 0 -9 -6 -9 -7 0 -9 -7 -6 -16 3 -8 -1
-22 -9 -31 -8 -8 -12 -20 -8 -26 4 -6 0 -8 -10 -4 -11 4 -14 2 -11 -8 3 -8 -3
-19 -14 -26 -11 -7 -18 -18 -15 -24 2 -7 -10 -18 -26 -25 -19 -8 -31 -20 -31
-31 0 -11 -6 -19 -14 -19 -8 0 -18 -9 -21 -20 -3 -11 -11 -20 -17 -20 -6 0 -8
-3 -5 -7 4 -3 2 -12 -4 -19 -27 -33 -98 -187 -101 -219 -3 -33 0 -38 37 -59
22 -12 62 -31 88 -41 53 -20 66 -37 47 -60 -10 -12 -16 -11 -44 9 -17 13 -60
38 -96 56 -36 17 -75 43 -86 57 l-22 25 -20 -20 c-32 -32 -45 -91 -27 -119 19
-29 19 -33 -2 -34 -11 0 -13 -3 -5 -6 15 -6 16 -33 1 -33 -6 0 -8 -9 -4 -20 3
-11 2 -20 -3 -20 -9 0 -18 -25 -28 -79 -3 -14 -8 -29 -12 -35 -4 -6 -8 -20 -9
-31 -1 -16 -10 -73 -12 -82 -1 -2 -1 -6 -2 -10 0 -5 -5 -13 -9 -18 -10 -12 -7
-385 4 -430 12 -54 39 -109 93 -187 29 -42 53 -83 53 -92 0 -17 33 -21 89 -10
l32 7 -3 76 -3 76 -37 9 c-55 14 -49 36 10 36 74 0 76 -4 80 -128 l4 -109
-136 -9 c-75 -5 -141 -7 -146 -6 -24 8 -7 22 28 22 49 0 57 8 33 34 -10 12
-56 71 -101 131 -45 61 -86 112 -91 113 -15 6 -10 -33 15 -115 14 -43 28 -113
32 -156 7 -77 21 -107 49 -107 17 0 33 -37 86 -190 39 -115 46 -129 94 -175
29 -27 91 -75 138 -105 56 -36 86 -62 86 -74 1 -30 -26 -16 -178 94 -78 56
-145 100 -147 97 -8 -8 11 -41 93 -160 62 -90 83 -111 124 -132 27 -14 49 -29
49 -35 0 -18 -20 -21 -42 -6 -26 18 -48 21 -48 5 0 -9 107 -157 162 -222 15
-19 35 -29 61 -33 56 -7 94 -25 170 -82 46 -35 78 -52 98 -52 32 0 41 23 12
34 -11 5 -13 10 -6 17 16 16 142 -44 271 -128 64 -42 164 -101 222 -130 l105
-54 -70 6 c-85 9 -133 26 -206 77 -51 36 -69 41 -180 59 -174 28 -230 57 -369
186 -25 24 -52 43 -60 43 -21 0 178 -192 275 -266 44 -34 105 -75 135 -92 l55
-30 335 -12 c184 -6 382 -15 440 -18 295 -19 858 0 1170 39 l145 18 -105 -4
c-58 -2 -179 -9 -270 -15 -209 -14 -335 -11 -335 9 0 12 30 15 160 16 99 1
217 10 310 23 204 29 385 43 407 31 32 -17 19 -27 -64 -47 -46 -11 -102 -27
-124 -36 -23 -8 -120 -22 -215 -30 -96 -9 -226 -22 -289 -28 -173 -19 -931
-16 -1254 6 -142 9 -261 14 -264 11 -10 -10 283 -143 404 -183 66 -22 192 -55
280 -73 158 -34 160 -34 424 -33 161 1 290 6 330 13 75 14 392 118 495 163 38
16 117 54 175 83 58 29 139 67 180 85 48 21 91 48 119 77 24 24 58 51 75 60
45 23 77 50 210 181 72 71 106 99 86 72 -60 -80 -283 -293 -387 -370 -269
-198 -572 -328 -898 -386 -200 -36 -556 -33 -768 6 -524 95 -976 352 -1299
739 -40 47 -74 88 -75 90 -2 2 -5 2 -8 -1 -12 -12 382 -428 406 -428 4 0 27
-16 51 -36 92 -78 272 -183 433 -255 94 -41 316 -109 438 -134 422 -84 877
-50 1262 94 142 54 341 158 439 230 73 54 186 125 186 116 0 -8 -160 -135
-220 -175 -79 -52 -290 -158 -385 -193 -273 -102 -517 -147 -802 -147 -368 0
-730 83 -1046 241 -107 54 -299 177 -355 229 -18 16 -37 30 -41 30 -14 0 -272
264 -337 344 -95 117 -183 253 -263 407 -217 415 -298 843 -240 1264 12 90 65
303 95 380 12 33 34 92 48 130 49 130 178 373 209 392 6 4 1 -9 -11 -28 -30
-44 -170 -325 -181 -364 -6 -16 -26 -76 -45 -132 -40 -114 -87 -329 -85 -389
l1 -39 9 45 c28 134 67 271 115 400 81 220 90 243 123 299 17 29 31 54 31 57
0 2 35 55 77 117 82 120 143 198 183 233 14 12 36 31 49 43 13 12 31 21 40 20
10 0 12 -2 3 -6z m1893 -38 c17 -13 25 -24 19 -25 -6 0 -24 11 -40 25 -38 32
-18 33 21 0z m-1495 -62 c0 -10 -6 -12 -22 -7 -32 9 -32 10 -18 44 l13 30 13
-26 c8 -14 14 -33 14 -41z m1661 51 c10 -13 10 -17 -1 -24 -17 -10 -40 5 -40
26 0 19 25 18 41 -2z m-1591 -28 c0 -8 -5 -18 -11 -22 -14 -8 -33 11 -25 25
10 16 36 13 36 -3z m1660 -33 c0 -20 -28 -15 -39 6 -6 10 -8 21 -5 24 9 9 44
-16 44 -30z m-1814 -20 c-7 -7 -26 7 -26 19 0 6 6 6 15 -2 9 -7 13 -15 11 -17z
m-157 -24 c17 -6 31 -16 31 -21 0 -15 -70 -2 -89 17 -14 13 -13 15 5 15 12 0
35 -5 53 -11z m2014 -8 c24 -13 27 -19 27 -65 -1 -47 -2 -49 -15 -32 -8 11
-15 28 -15 37 0 31 -11 47 -30 42 -22 -6 -37 16 -19 28 8 5 16 7 19 6 3 -1 17
-9 33 -16z m-793 -7 c0 -17 -22 -14 -28 4 -2 7 3 12 12 12 9 0 16 -7 16 -16z
m94 -6 c3 -13 6 -30 6 -37 0 -23 -16 0 -24 32 -8 32 9 37 18 5z m-1371 -16
c75 -24 85 -34 56 -61 -39 -36 -82 -25 -90 24 -2 11 -14 24 -27 30 -24 11 -30
25 -9 25 6 0 38 -8 70 -18z m1210 -29 c6 -30 -18 -78 -33 -68 -15 9 -12 82 3
88 22 9 25 7 30 -20z m67 2 c0 -26 -30 -94 -42 -95 -11 0 -10 34 1 62 5 13 12
31 15 41 8 26 26 21 26 -8z m-1366 -6 c5 -5 7 -12 3 -16 -4 -4 -13 -1 -19 5
-7 7 -20 12 -30 12 -10 0 -18 5 -18 11 0 12 49 4 64 -12z m1182 -39 c16 -22
33 -40 38 -40 9 0 4 31 -9 64 -6 13 -4 17 5 14 7 -2 21 -26 32 -53 16 -40 18
-57 9 -90 -18 -73 -22 -116 -12 -129 8 -9 3 -18 -19 -34 -30 -23 -90 -103 -90
-121 0 -6 5 -11 10 -11 6 0 10 8 10 18 1 20 76 110 85 100 3 -3 -5 -29 -19
-57 -40 -78 -31 -93 15 -24 43 67 54 77 68 69 5 -3 -7 -35 -26 -72 -19 -36
-33 -67 -31 -70 3 -2 17 7 32 21 49 45 68 23 36 -40 -11 -21 -20 -54 -20 -71
0 -43 -25 -69 -86 -93 -38 -15 -54 -17 -63 -8 -23 23 -11 43 37 60 82 30 113
59 73 70 -11 2 -21 15 -23 28 -4 23 -5 23 -12 4 -25 -66 -48 -71 -65 -15 -6
22 -15 40 -20 40 -22 0 -51 43 -51 76 0 37 44 109 61 98 5 -3 6 -11 3 -17 -4
-7 9 4 28 23 32 31 35 39 31 77 -6 51 -19 48 -28 -7 -4 -26 -12 -40 -22 -40
-12 0 -14 7 -9 28 4 15 11 63 15 107 8 78 2 115 -19 115 -6 0 -10 5 -10 10 0
20 17 9 46 -30z m272 -2 c7 -7 12 -15 12 -19 0 -11 -38 2 -51 17 -9 11 -8 14
8 14 10 0 24 -5 31 -12z m-1311 -34 c4 -12 -40 -22 -69 -16 -10 2 -18 10 -18
18 0 12 10 14 42 12 23 -2 43 -8 45 -14z m988 -24 c20 -38 19 -81 -2 -119 -23
-40 -37 -39 -28 2 23 103 24 112 8 130 -10 10 -12 17 -5 17 6 0 18 -13 27 -30z
m432 -9 c9 -13 16 -14 31 -4 19 11 53 0 39 -13 -13 -13 -75 -31 -84 -25 -22
16 -44 51 -39 60 8 13 37 3 53 -18z m-277 -93 c0 -48 -3 -59 -12 -50 -13 13
-16 67 -5 95 12 31 17 18 17 -45z m-1047 -4 c18 -9 39 -21 47 -25 8 -5 25 -14
38 -19 24 -10 26 -30 3 -38 -7 -2 -15 6 -18 17 -7 29 -39 23 -35 -6 4 -26 -17
-39 -80 -48 -41 -6 -48 -5 -48 10 0 9 -9 30 -20 45 l-20 28 31 26 c36 30 59
32 102 10z m1317 -74 c0 -11 -7 -20 -15 -20 -15 0 -21 21 -8 33 12 13 23 7 23
-13z m-1488 -18 c-19 -6 -14 -31 8 -44 21 -14 26 -33 11 -43 -10 -5 -71 48
-71 62 0 14 55 52 59 40 2 -6 -1 -13 -7 -15z m422 -31 c3 -5 21 -12 41 -15 38
-7 54 -24 35 -36 -7 -4 -9 -13 -6 -19 10 -16 46 -13 52 4 9 22 30 18 48 -10
16 -24 50 -34 60 -16 3 4 -3 16 -14 26 -11 10 -20 21 -20 24 0 3 45 7 100 8
80 1 100 -2 100 -13 0 -8 -7 -15 -15 -15 -28 -3 -33 -4 -41 -11 -4 -5 1 -8 12
-8 32 0 46 -16 55 -61 7 -42 6 -45 -29 -76 -20 -17 -34 -35 -30 -39 5 -4 16 1
27 10 16 15 22 15 40 4 26 -16 26 -20 -2 -34 -67 -34 -87 -46 -87 -55 0 -15
18 -10 77 21 73 39 99 39 53 0 -19 -16 -40 -30 -47 -30 -34 0 -15 -21 47 -54
79 -40 120 -44 165 -16 84 54 129 70 111 42 -3 -5 -49 -39 -103 -75 -54 -36
-122 -88 -152 -116 -30 -28 -62 -51 -72 -51 -20 0 -46 25 -81 76 -29 43 -68
62 -80 40 -7 -12 -14 -14 -28 -6 -26 14 -29 13 -23 -10 6 -22 -7 -26 -24 -9
-9 9 -10 7 -6 -10 6 -23 -6 -28 -25 -9 -9 9 -12 8 -12 -5 0 -20 -20 -22 -40
-4 -8 6 -7 3 3 -9 9 -11 17 -28 17 -37 0 -18 25 -23 34 -8 7 10 83 26 104 22
20 -3 52 -34 52 -48 0 -16 -5 -16 -32 -2 -35 19 -91 -5 -137 -58 -23 -25 -41
-52 -41 -59 0 -17 -18 -18 -53 -1 -30 13 -33 21 -43 92 -7 53 -42 133 -68 154
-21 17 -20 31 2 47 14 11 15 16 4 33 -15 25 -5 27 26 5 32 -22 27 -8 -18 49
-42 52 -46 75 -7 40 32 -29 52 -40 42 -22 -4 8 -17 24 -28 36 -27 31 -17 38
16 12 30 -23 36 -15 10 13 -28 31 -6 33 39 3 l43 -28 -29 32 c-32 34 -30 49 4
31 18 -10 21 -9 18 7 -3 16 3 18 55 14 57 -3 58 -2 48 17 -10 19 -19 21 -124
17 -108 -3 -222 -26 -275 -54 -13 -7 -48 -35 -78 -62 -52 -47 -57 -49 -97 -43
-53 8 -136 48 -160 77 -25 29 -3 36 27 8 26 -25 48 -28 39 -5 -3 9 -2 19 4 23
5 3 25 35 43 70 44 82 107 130 215 164 110 35 168 42 185 22 19 -22 43 -19 37
5 -4 17 -2 18 13 10 11 -6 21 -14 24 -19z m1002 -77 c-20 -55 -25 -63 -25 -38
-1 41 29 128 40 117 5 -5 -1 -38 -15 -79z m89 76 c3 -6 17 -7 30 -4 17 4 26 0
34 -15 7 -12 17 -18 27 -14 8 3 21 -2 28 -13 12 -16 16 -16 30 -5 41 34 40
-40 -1 -104 -7 -11 -13 -30 -13 -42 0 -27 -15 -30 -25 -5 -6 16 -7 16 -21 -3
-9 -12 -12 -30 -8 -48 6 -27 -9 -57 -27 -57 -5 0 -9 11 -9 24 0 14 -5 28 -10
31 -15 9 -23 -21 -11 -43 8 -14 7 -29 0 -51 -14 -41 -29 -39 -29 3 0 41 -8 66
-22 66 -6 0 -9 -28 -7 -72 3 -51 0 -72 -8 -75 -13 -5 -19 119 -17 302 1 96 34
166 59 125z m295 -9 c0 -5 -7 -28 -15 -51 -21 -60 -20 -97 5 -105 11 -3 20
-13 20 -21 0 -24 -29 -73 -49 -84 -27 -14 -31 -13 -31 11 0 29 -12 22 -60 -39
-48 -61 -49 -75 -1 -32 18 17 36 30 42 30 19 0 8 -27 -16 -40 -14 -7 -25 -19
-25 -27 0 -18 6 -17 38 7 20 14 54 22 127 29 104 9 119 6 128 -29 9 -36 -71
-82 -152 -86 -52 -2 -56 -5 -87 -47 -34 -47 -52 -63 -61 -54 -7 7 34 67 61 89
19 16 20 18 5 33 -13 13 -21 14 -36 7 -14 -8 -27 -6 -50 4 -28 14 -33 14 -49
0 -28 -22 -123 -98 -150 -119 -19 -15 -24 -16 -24 -4 0 17 77 115 151 192 76
79 82 90 142 249 19 50 87 118 87 87z m-912 -36 c-11 -24 -28 -34 -28 -16 0
21 13 41 26 41 11 0 11 -5 2 -25z m1062 -23 c0 -5 -7 -17 -16 -28 -8 -10 -14
-14 -11 -9 2 6 7 18 10 28 7 17 17 23 17 9z m-1055 -77 c14 -25 37 -53 51 -62
30 -19 17 -41 -15 -24 -28 16 -71 80 -71 108 0 13 2 23 4 23 2 0 16 -20 31
-45z m1308 -11 c19 -16 38 -24 51 -21 89 21 85 21 79 -2 -4 -15 -1 -21 11 -21
9 0 16 -7 16 -16 0 -20 102 -66 150 -68 41 -1 45 -20 6 -30 -21 -5 -22 -10
-18 -66 3 -40 1 -60 -7 -60 -6 0 -11 15 -11 34 0 53 -8 65 -69 96 -31 15 -78
44 -106 64 -27 20 -54 36 -59 36 -6 0 -27 12 -48 27 -28 19 -42 23 -50 15 -13
-13 54 -83 122 -128 51 -33 150 -113 192 -154 24 -24 26 -30 13 -40 -12 -10
-19 -10 -33 4 -19 16 -72 23 -72 8 0 -5 7 -17 15 -28 20 -27 18 -84 -5 -148
-25 -67 -39 -79 -93 -81 -31 -1 -63 -14 -119 -48 -42 -26 -81 -47 -87 -47 -11
0 -31 62 -31 95 0 11 7 31 16 43 17 25 15 27 -21 10 -37 -17 -42 -3 -9 26 l29
25 -27 1 c-16 0 -28 4 -28 9 0 5 12 19 28 30 l27 20 -27 1 c-34 0 -36 17 -4
30 13 5 27 14 31 19 3 6 10 11 15 11 12 0 9 -82 -3 -98 -14 -18 -2 -25 21 -13
31 16 54 86 46 138 -3 24 -13 50 -20 58 -8 7 -14 21 -14 29 0 9 -4 16 -10 16
-5 0 -10 10 -10 23 0 12 -9 29 -20 37 -11 8 -20 20 -20 27 0 21 35 15 58 -9
11 -13 26 -27 32 -33 86 -79 190 -232 190 -279 0 -20 14 -21 30 -1 21 26 14
61 -28 138 -23 41 -39 76 -37 79 2 2 -22 33 -55 68 -33 36 -60 68 -60 72 0 4
-14 21 -31 38 -24 23 -41 30 -70 30 -48 0 -51 17 -4 26 19 3 39 12 46 20 17
21 48 17 82 -12z m-947 -108 c-9 -30 -21 -58 -28 -62 -7 -5 -9 -2 -6 7 3 8 13
38 23 67 22 70 32 60 11 -12z m865 34 c10 -6 19 -17 19 -26 0 -11 -5 -12 -17
-6 -29 15 -153 23 -177 11 -19 -9 -19 -8 3 10 18 17 37 21 88 21 35 0 73 -5
84 -10z m-778 -73 c3 -8 8 -39 12 -70 8 -65 -1 -75 -51 -57 -27 11 -28 13 -11
24 9 7 17 26 17 42 0 58 20 94 33 61z m678 -29 c18 -33 27 -84 19 -98 -11 -18
-30 -3 -30 24 0 13 -11 40 -25 60 -14 21 -23 42 -20 47 9 13 42 -7 56 -33z
m-1083 20 c-5 -14 -65 -58 -79 -58 -22 0 -5 27 29 46 44 26 55 28 50 12z m42
5 c0 -13 -64 -73 -77 -73 -7 0 4 18 25 40 35 38 52 48 52 33z m60 -8 c0 -8 5
-15 10 -15 19 0 10 -39 -12 -54 -25 -18 -108 -22 -108 -6 0 6 7 13 15 16 8 3
24 21 36 40 21 35 59 47 59 19z m-1151 -70 c21 -6 20 -4 -10 24 l-34 32 42
-20 c23 -12 60 -21 83 -21 28 0 40 -4 40 -15 0 -32 -87 -48 -133 -24 -34 18
-77 61 -77 78 0 10 10 5 33 -16 17 -17 43 -34 56 -38z m352 44 c13 -11 20 -22
14 -25 -93 -42 -123 -88 -85 -129 24 -26 20 -45 -10 -45 -29 0 -54 43 -41 69
7 12 9 38 5 61 -6 34 -3 45 16 65 29 31 69 32 101 4z m965 -81 c-19 -37 -12
-68 15 -68 25 0 25 -26 -1 -33 -11 -3 -20 -10 -20 -16 0 -14 27 -14 36 0 4 7
9 8 17 0 14 -14 -7 -37 -49 -53 -21 -7 -34 -19 -34 -29 0 -23 -27 -49 -51 -49
-25 0 -24 16 4 50 16 18 29 56 40 114 10 48 25 105 35 127 16 38 17 39 20 15
2 -15 -4 -40 -12 -58z m-1353 3 c35 -16 62 -22 95 -19 37 2 47 0 47 -12 0 -12
-16 -16 -73 -18 -69 -3 -74 -1 -102 27 -27 26 -42 59 -22 49 4 -2 29 -14 55
-27z m1805 -63 c-32 -47 -171 -189 -230 -233 -65 -49 -100 -62 -46 -17 43 36
162 161 196 206 27 36 82 79 90 71 3 -2 -2 -15 -10 -27z m412 4 c0 -18 -47
-48 -58 -38 -8 9 28 56 43 56 8 0 15 -8 15 -18z m-496 -13 c-8 -21 -95 -91
-103 -83 -3 3 18 28 48 55 52 49 68 56 55 28z m-1638 1 c60 0 74 -3 74 -16 0
-20 70 -104 87 -104 24 0 13 -18 -27 -47 -41 -29 -52 -53 -24 -53 8 0 41 17
72 39 56 37 115 71 127 71 3 0 3 -11 -1 -25 -5 -20 -1 -26 20 -35 29 -11 34
-35 10 -61 -15 -16 -17 -16 -36 3 -18 18 -29 20 -85 15 -36 -4 -79 -13 -95
-22 -17 -8 -39 -15 -48 -15 -35 0 -149 97 -150 128 0 7 -8 24 -17 38 -13 21
-14 27 -3 34 10 6 6 14 -16 35 l-29 27 34 -6 c18 -3 67 -6 107 -6z m1143 -22
c-7 -13 -43 -53 -80 -89 -38 -36 -69 -71 -69 -76 0 -31 105 -78 151 -68 15 3
54 31 87 61 33 29 63 54 66 54 3 0 6 -13 6 -28 0 -28 -21 -54 -153 -180 -46
-45 -57 -62 -69 -110 -8 -38 -18 -57 -28 -57 -9 0 -14 8 -13 20 1 11 0 14 -3
8 -4 -9 -11 -10 -22 -4 -27 14 -72 2 -65 -18 4 -12 3 -13 -5 -2 -7 10 -14 10
-30 2 -27 -15 -32 -14 -32 4 0 8 -4 15 -10 15 -5 0 -10 -7 -10 -16 0 -9 -8
-28 -18 -42 -10 -15 -38 -65 -62 -112 -39 -77 -97 -181 -221 -402 -24 -42 -61
-108 -82 -147 -20 -39 -42 -71 -48 -71 -22 0 -18 30 10 76 90 150 237 420 352
649 72 143 137 267 145 276 19 21 18 41 -3 37 -9 -2 -45 -46 -80 -98 -57 -86
-105 -131 -121 -115 -3 3 4 8 16 12 21 5 22 7 6 24 -9 10 -22 15 -30 12 -8 -3
-14 0 -14 7 0 6 -5 8 -11 4 -8 -4 -7 -9 2 -15 10 -6 9 -9 -6 -14 -40 -14 -44
-14 -39 -1 8 20 -25 28 -43 10 -9 -8 -22 -13 -30 -10 -8 3 -13 0 -12 -7 3 -20
-12 -47 -23 -41 -6 4 -6 9 2 14 7 4 9 13 5 20 -12 19 -31 -17 -55 -107 -12
-46 -26 -80 -31 -78 -4 3 -6 13 -3 23 5 14 4 14 -4 2 -6 -8 -26 -87 -47 -175
-20 -88 -47 -205 -60 -260 -13 -55 -27 -119 -31 -143 -8 -48 -20 -61 -39 -41
-12 12 -12 23 1 69 8 30 48 192 89 360 41 168 86 342 100 388 22 70 29 82 48
82 13 0 33 14 50 35 47 58 93 82 184 94 82 10 121 27 178 77 34 29 183 113
203 114 10 0 10 -5 1 -22z m251 3 c-15 -29 -30 -35 -30 -13 0 22 8 32 27 32
10 0 11 -5 3 -19z m-1062 -13 c16 -16 15 -28 -2 -28 -17 0 -38 24 -29 33 9 10
17 9 31 -5z m1662 -8 c0 -11 -5 -20 -11 -20 -7 0 -8 -11 -4 -29 3 -17 2 -32
-4 -36 -8 -4 -8 -12 0 -26 7 -15 7 -24 -2 -35 -16 -20 -27 -17 -31 8 -2 12 -9
23 -15 26 -22 7 -13 -22 17 -57 15 -18 26 -40 23 -47 -8 -21 -18 -17 -31 12
-14 30 -32 23 -32 -12 0 -13 -4 -24 -9 -24 -5 0 -13 -10 -17 -22 -3 -12 -21
-44 -38 -72 -34 -55 -56 -101 -56 -118 0 -21 29 14 65 78 19 34 40 66 45 69 6
3 10 19 10 36 0 19 5 29 15 29 17 0 20 -40 5 -68 -24 -45 -105 -224 -127 -281
-13 -35 -30 -73 -38 -85 -8 -11 -20 -46 -26 -78 -6 -32 -16 -58 -20 -58 -5 0
-9 7 -9 15 0 8 -5 15 -10 15 -15 0 -25 -31 -12 -39 6 -3 11 -33 11 -65 0 -54
-1 -57 -15 -37 -17 24 -34 28 -34 7 0 -7 -6 -19 -14 -25 -19 -16 -27 6 -13 37
17 37 1 36 -38 -2 -19 -20 -38 -36 -40 -36 -16 0 1 29 43 71 27 27 61 75 77
107 15 31 36 64 48 73 11 9 17 21 13 28 -12 19 -34 12 -41 -11 -13 -42 -84
-153 -124 -192 -54 -52 -73 -42 -24 13 42 48 98 141 85 141 -4 0 -32 -25 -62
-55 -85 -87 -97 -74 -55 59 28 87 29 98 16 124 -28 55 -33 72 -26 101 4 17 4
31 2 31 -3 0 -41 -52 -84 -116 -83 -123 -107 -137 -49 -27 20 37 34 68 32 70
-1 2 -21 -23 -43 -54 -23 -32 -50 -67 -62 -77 -22 -20 -22 -20 -14 0 20 49
108 193 139 228 28 31 34 46 34 83 0 37 5 50 31 73 16 16 36 27 42 24 8 -3 18
10 26 31 14 39 31 38 31 -1 0 -14 4 -22 10 -19 6 3 10 20 10 37 0 43 28 97 60
113 15 8 59 16 99 19 49 3 83 12 107 26 28 18 37 20 49 10 8 -7 13 -16 10 -20
-7 -12 5 -40 17 -40 10 0 8 17 -7 53 -5 12 -2 17 8 17 9 0 19 9 22 20 3 11 13
20 21 20 8 0 14 -9 14 -20z m-835 -75 c-17 -36 -29 -43 -41 -24 -4 7 1 16 10
21 9 5 16 15 16 21 0 7 6 19 12 25 20 20 22 -4 3 -43z m-347 17 c35 -31 39
-42 19 -42 -14 0 -67 50 -67 63 0 14 17 6 48 -21z m595 -17 c-7 -21 -13 -19
-13 6 0 11 4 18 10 14 5 -3 7 -12 3 -20z m-1612 -170 c21 -71 83 -267 139
-435 111 -331 161 -500 154 -512 -12 -19 -42 -7 -48 20 -10 41 -129 430 -201
657 -56 177 -115 381 -115 400 0 3 8 5 17 3 12 -2 27 -39 54 -133z m1342 105
c17 0 33 -18 23 -27 -11 -11 -76 26 -76 43 0 16 1 16 18 1 10 -10 26 -17 35
-17z m-833 -90 c0 -5 -5 -10 -11 -10 -5 0 -7 5 -4 10 3 6 8 10 11 10 2 0 4 -4
4 -10z m1017 -37 c3 -62 -44 -164 -114 -253 -36 -45 -67 -79 -70 -76 -3 2 20
40 50 83 50 72 124 229 113 241 -3 2 -35 -21 -71 -53 -64 -57 -90 -70 -57 -30
15 18 139 125 146 125 1 0 3 -17 3 -37z m-1144 -105 c15 -231 28 -629 25 -713
-3 -82 -5 -90 -23 -90 -20 0 -20 9 -26 350 -3 193 -10 391 -14 442 -7 93 -4
113 19 113 10 0 15 -28 19 -102z m2107 59 c0 -12 9 -41 20 -62 11 -22 18 -46
15 -53 -3 -8 4 -26 15 -42 24 -34 25 -50 5 -50 -13 0 -14 -4 -5 -20 12 -23 0
-27 -29 -8 -15 9 -28 9 -59 0 -22 -7 -47 -12 -56 -12 -26 0 -106 59 -106 78 0
12 10 6 35 -20 18 -21 43 -38 53 -38 24 0 82 29 82 41 0 12 -17 12 -25 -1 -9
-14 -57 -12 -75 3 -31 25 -41 45 -34 71 8 34 25 33 46 -4 18 -31 44 -48 55
-36 4 3 1 12 -5 18 -19 19 -15 40 7 33 29 -9 36 14 12 39 l-22 23 26 32 c32
37 45 39 45 8z m-1645 -77 c-3 -5 -14 -10 -23 -10 -15 0 -15 2 -2 10 20 13 33
13 25 0z m-15 -30 c0 -5 -4 -10 -10 -10 -5 0 -10 5 -10 10 0 6 5 10 10 10 6 0
10 -4 10 -10z m570 -13 c0 -11 -33 -68 -42 -73 -6 -4 -9 -3 -6 2 2 5 11 24 18
42 8 17 18 32 22 32 4 0 8 -2 8 -3z m-310 -67 c0 -5 -5 -10 -11 -10 -5 0 -7 5
-4 10 3 6 8 10 11 10 2 0 4 -4 4 -10z m375 -50 c-33 -47 -63 -75 -72 -67 -5 6
22 45 77 110 27 31 23 -3 -5 -43z m29 -19 c-42 -55 -66 -69 -38 -21 23 37 64
83 71 76 2 -2 -12 -27 -33 -55z m-817 -53 c-3 -8 -6 -5 -6 6 -1 11 2 17 5 13
3 -3 4 -12 1 -19z m1963 -108 c0 -5 -2 -10 -4 -10 -3 0 -8 5 -11 10 -3 6 -1
10 4 10 6 0 11 -4 11 -10z m-2763 -87 c36 -44 181 -237 277 -371 27 -38 36
-56 28 -64 -20 -20 -40 0 -121 119 -45 65 -120 173 -167 241 -53 76 -80 122
-71 122 8 0 33 -21 54 -47z m1187 -56 c-3 -8 -18 -24 -34 -36 -17 -12 -30 -30
-30 -40 0 -10 -11 -44 -25 -75 -26 -59 -32 -96 -15 -96 6 0 10 12 10 26 0 14
7 38 14 52 8 15 22 44 32 65 9 21 30 52 46 69 53 57 48 38 -52 -177 -15 -33
-31 -69 -35 -80 -7 -19 -8 -19 -18 5 -7 14 -18 30 -26 36 -13 10 -14 19 -2 64
7 28 11 54 8 56 -10 11 -30 -41 -37 -96 l-6 -55 -8 37 c-12 53 11 117 48 138
31 16 46 40 26 40 -13 0 -70 -39 -87 -60 -7 -8 -13 -27 -13 -41 0 -14 -7 -34
-14 -45 -14 -17 -15 -14 -13 40 2 53 5 61 37 88 35 29 164 96 187 97 7 1 10
-5 7 -12z m190 -5 c2 -4 -12 -52 -32 -107 -36 -99 -37 -101 -34 -239 2 -135 2
-139 -16 -123 -10 9 -36 23 -57 30 -21 8 -42 20 -46 28 -34 72 -59 131 -59
140 0 20 43 105 83 162 52 74 144 137 161 109z m193 -44 c-3 -8 -6 -5 -6 6 -1
11 2 17 5 13 3 -3 4 -12 1 -19z m243 4 c0 -5 -9 -18 -21 -31 -17 -18 -23 -43
-31 -134 -18 -217 -25 -234 -26 -67 l0 154 29 43 c28 39 49 55 49 35z m1048
-6 c-7 -8 -15 -12 -17 -11 -5 6 10 25 20 25 5 0 4 -6 -3 -14z m42 -22 c0 -8
-6 -11 -15 -8 -8 4 -15 9 -15 13 0 4 7 8 15 8 8 0 15 -6 15 -13z m-1430 -83
c-17 -44 -20 -74 -20 -214 0 -119 -4 -177 -16 -217 -9 -30 -24 -83 -33 -117
-9 -35 -20 -61 -26 -59 -16 5 -7 67 21 128 36 82 45 155 38 298 -6 122 -5 126
23 187 33 73 43 69 13 -6z m55 -18 c-18 -46 -26 -82 -24 -117 5 -127 -2 -258
-16 -298 -8 -24 -20 -87 -27 -140 -6 -54 -15 -98 -18 -98 -4 0 -12 11 -18 25
-12 25 -3 105 17 150 28 65 35 115 41 275 6 165 8 178 35 235 37 77 45 54 10
-32z m1345 77 c0 -5 -4 -10 -10 -10 -5 0 -10 5 -10 10 0 6 5 10 10 10 6 0 10
-4 10 -10z m-620 -25 c0 -27 15 -34 24 -10 6 17 36 21 36 5 0 -19 29 -10 35
11 18 57 44 -25 30 -98 -8 -44 -25 -42 -25 3 0 21 -4 33 -10 29 -6 -3 -10 -48
-10 -101 0 -73 3 -94 14 -94 39 0 110 -145 103 -212 -5 -51 -18 -63 -44 -41
-19 17 -73 165 -73 201 0 14 -2 14 -9 3 -5 -7 -14 -10 -20 -6 -9 5 -11 41 -7
128 4 76 2 113 -3 97 -5 -14 -9 -57 -10 -97 -1 -74 -15 -104 -27 -57 -4 14 -4
57 -1 95 3 38 2 71 -2 74 -10 6 -21 -43 -21 -91 0 -19 -4 -34 -9 -34 -21 0
-23 138 -2 193 13 34 31 35 31 2z m-839 -57 c-6 -17 -11 -102 -11 -195 0 -163
-12 -233 -39 -233 -15 0 -14 11 6 56 12 29 15 63 13 134 -4 172 -2 216 15 256
20 44 32 30 16 -18z m188 -130 c-7 -189 -7 -188 -55 -334 -33 -100 -44 -174
-24 -174 6 0 10 -6 10 -14 0 -7 18 -31 40 -52 33 -32 40 -46 40 -76 0 -53 -20
-49 -86 17 l-55 55 7 77 c3 43 17 129 30 190 17 80 24 145 24 224 0 98 3 115
24 152 13 23 27 57 31 75 15 72 20 23 14 -140z m-244 65 c-4 -27 -7 -88 -6
-137 2 -52 -1 -86 -7 -82 -15 9 -24 197 -11 234 17 50 33 40 24 -15z m1705
-113 c0 -5 -7 -10 -16 -10 -8 0 -12 5 -9 10 3 6 10 10 16 10 5 0 9 -4 9 -10z
m-2461 -21 c105 -24 234 -118 278 -202 56 -110 70 -234 34 -306 -22 -42 -44
-53 -55 -26 -3 8 -11 15 -18 15 -21 0 -46 36 -93 129 -41 81 -139 201 -165
201 -5 0 -10 4 -10 10 0 5 -36 26 -79 47 -45 21 -82 45 -84 54 -3 11 -17 19
-38 21 l-34 3 45 24 c75 40 138 49 219 30z m265 -10 c27 -21 35 -49 13 -49
-18 0 -68 49 -62 61 9 14 20 11 49 -12z m3481 -49 c-3 -5 -10 -10 -16 -10 -5
0 -9 5 -9 10 0 6 7 10 16 10 8 0 12 -4 9 -10z m-3385 -31 c0 -15 -42 -48 -60
-48 -13 0 -13 1 1 12 8 7 18 20 22 30 7 19 37 24 37 6z m3395 1 c-3 -5 -10
-10 -16 -10 -5 0 -9 5 -9 10 0 6 7 10 16 10 8 0 12 -4 9 -10z m-15 -24 c0 -2
-8 -10 -17 -17 -16 -13 -17 -12 -4 4 13 16 21 21 21 13z m-3240 -40 c0 -8 -31
-25 -72 -40 -83 -30 -98 -32 -98 -12 0 7 30 25 68 39 77 29 102 33 102 13z
m3187 -2 c-3 -3 -12 -4 -19 -1 -8 3 -5 6 6 6 11 1 17 -2 13 -5z m-193 -20 c4
-9 2 -22 -4 -29 -8 -9 -7 -14 2 -18 7 -2 10 -7 6 -11 -8 -10 -48 16 -48 31 0
7 -8 17 -17 23 -16 10 -15 10 4 5 12 -3 24 -1 28 5 9 15 22 12 29 -6z m142 -9
c-8 -8 -18 -15 -22 -15 -3 0 -1 7 6 15 7 8 17 15 22 15 5 0 3 -7 -6 -15z m74
1 c0 -3 -4 -8 -10 -11 -5 -3 -10 -1 -10 4 0 6 5 11 10 11 6 0 10 -2 10 -4z
m-270 -16 c0 -5 -11 -17 -25 -26 l-25 -16 26 -23 c15 -13 24 -27 20 -33 -3 -5
5 -9 19 -9 14 0 25 4 25 10 0 8 3 8 11 0 6 -6 8 -16 5 -22 -10 -15 -57 -3 -77
20 -15 16 -18 17 -29 4 -7 -8 -18 -15 -24 -15 -6 0 -3 7 7 15 13 9 17 20 12
34 -4 14 1 28 17 45 25 26 38 32 38 16z m98 -25 c-6 -11 -10 -22 -9 -25 1 -2
-6 -7 -16 -11 -17 -7 -17 -8 1 -8 11 -1 17 -4 13 -7 -3 -3 -16 -3 -28 1 -23 8
-23 8 -3 24 11 9 18 23 16 31 -1 10 5 16 17 16 16 0 18 -3 9 -21z m72 5 c0 -5
-7 -7 -15 -4 -8 4 -15 8 -15 10 0 2 7 4 15 4 8 0 15 -4 15 -10z m-1276 -15
c21 -16 13 -35 -15 -35 -10 0 -19 -7 -19 -15 0 -8 -9 -15 -19 -15 -10 0 -22
-7 -25 -16 -3 -8 -10 -13 -15 -9 -6 3 -14 -2 -19 -12 -9 -16 -11 -16 -36 0
-32 21 -38 64 -7 47 26 -14 31 -13 31 5 0 10 7 15 18 13 11 -2 17 3 16 15 -2
15 3 17 27 12 22 -5 29 -3 29 9 0 19 9 20 34 1z m1116 -5 c0 -5 7 -7 15 -4 16
7 19 -4 7 -24 -7 -10 -13 -8 -30 6 -26 23 -28 32 -7 32 8 0 15 -4 15 -10z
m110 -5 c0 -8 -4 -15 -8 -15 -5 0 -9 7 -9 15 0 8 4 15 9 15 4 0 8 -7 8 -15z
m-2867 -57 c-3 -21 -10 -38 -15 -38 -6 0 -8 13 -4 31 3 17 6 41 6 53 1 16 2
18 9 6 5 -8 6 -32 4 -52z m-50 15 c4 -19 2 -33 -3 -33 -6 0 -10 17 -10 37 0
43 5 41 13 -4z m103 0 c-3 -21 -6 -46 -6 -55 0 -10 -4 -18 -10 -18 -11 0 -14
69 -4 94 12 32 27 16 20 -21z m-256 12 c0 -16 -103 -51 -120 -40 -23 14 -10
35 23 36 17 0 41 4 52 9 30 13 45 12 45 -5z m105 -15 c3 -5 1 -10 -4 -10 -6 0
-11 5 -11 10 0 6 2 10 4 10 3 0 8 -4 11 -10z m1552 -35 c25 -25 43 -48 39 -52
-11 -12 -56 20 -76 54 -35 59 -25 58 37 -2z m1395 28 c-6 -3 -10 -9 -6 -14 3
-5 0 -9 -5 -9 -6 0 -11 4 -11 8 0 12 23 32 29 25 3 -3 0 -8 -7 -10z m-1792
-35 c0 -26 -2 -29 -15 -18 -15 13 -20 42 -9 53 13 12 24 -4 24 -35z m640 12
c0 -5 -4 -10 -9 -10 -6 0 -13 5 -16 10 -3 6 1 10 9 10 9 0 16 -4 16 -10z
m-276 -46 c4 -10 -16 -25 -67 -51 -57 -29 -84 -37 -129 -37 -72 -1 -83 9 -61
55 15 35 19 37 78 42 35 3 78 12 96 20 29 12 37 12 56 0 12 -8 24 -21 27 -29z
m1303 30 c12 -12 13 -18 4 -23 -7 -4 -11 -14 -9 -21 2 -7 -4 -15 -12 -17 -12
-4 -12 -3 -1 5 16 11 6 18 -31 20 -16 1 -28 -3 -28 -9 0 -5 -4 -7 -10 -4 -12
8 11 34 25 29 6 -3 17 5 25 16 17 24 17 24 37 4z m-1067 -19 c0 -8 -7 -15 -15
-15 -8 0 -15 7 -15 15 0 8 7 15 15 15 8 0 15 -7 15 -15z m1110 11 c0 -3 -4 -8
-10 -11 -5 -3 -10 -1 -10 4 0 6 5 11 10 11 6 0 10 -2 10 -4z m-2909 -96 c1
-30 6 -62 10 -71 4 -8 4 -21 -1 -29 -7 -11 -11 -11 -23 -1 -9 7 -26 9 -41 5
-14 -3 -26 -5 -26 -3 0 2 14 31 30 63 17 32 30 70 30 84 0 51 19 7 21 -48z
m-76 51 c2 -5 -1 -16 -8 -25 -11 -14 -19 -16 -47 -9 -19 5 -36 16 -38 25 -2
11 7 15 43 16 25 0 47 -3 50 -7z m1835 -7 c0 -10 -6 -14 -15 -10 -9 3 -15 0
-15 -10 0 -8 -5 -12 -11 -9 -7 5 -4 14 7 26 21 23 34 24 34 3z m-92 -12 c2 -7
-3 -12 -12 -12 -9 0 -16 7 -16 16 0 17 22 14 28 -4z m222 8 c0 -5 -4 -10 -10
-10 -5 0 -10 5 -10 10 0 6 5 10 10 10 6 0 10 -4 10 -10z m930 0 c0 -5 -4 -10
-10 -10 -5 0 -10 5 -10 10 0 6 5 10 10 10 6 0 10 -4 10 -10z m-2770 -22 c5
-13 16 -54 25 -92 12 -52 12 -72 4 -82 -18 -22 -28 -16 -39 25 -16 62 -23 171
-11 171 6 0 16 -10 21 -22z m2850 18 c0 -2 -7 -7 -16 -10 -8 -3 -12 -2 -9 4 6
10 25 14 25 6z m-1913 -46 c36 -42 53 -50 53 -25 0 8 4 15 9 15 11 0 61 -65
61 -79 0 -19 -29 -12 -40 9 -14 26 -30 26 -30 -1 0 -15 -5 -19 -15 -15 -29 11
-15 -23 20 -49 26 -21 47 -27 90 -29 30 -1 55 1 55 6 0 18 28 6 38 -17 16 -36
35 -32 27 5 -9 42 15 39 37 -4 18 -37 10 -60 -18 -54 -11 3 -34 -4 -52 -15
-21 -12 -37 -16 -43 -10 -11 11 -2 43 12 43 5 0 9 7 9 15 0 8 -4 15 -10 15 -5
0 -10 -4 -10 -10 0 -5 -7 -10 -16 -10 -10 0 -14 -7 -12 -22 2 -18 -2 -23 -19
-23 -11 0 -25 -3 -29 -7 -4 -5 -16 -8 -26 -8 -13 0 -18 -6 -16 -17 3 -14 13
-18 51 -16 52 1 60 -8 22 -25 -56 -26 -162 -1 -215 49 -25 25 -36 29 -63 24
-48 -9 -79 20 -101 93 -10 34 -15 66 -11 71 9 15 40 14 82 -4 45 -19 51 -14
24 21 -19 24 -20 30 -8 48 14 20 83 66 101 66 5 0 24 -18 43 -40z m-758 -45
c11 -24 21 -54 21 -65 0 -21 -24 -27 -36 -9 -4 7 -23 9 -50 5 -41 -5 -58 4
-34 19 6 3 10 14 10 24 0 10 7 35 15 55 13 31 18 35 34 27 10 -6 28 -31 40
-56z m1041 10 c23 -31 40 -61 38 -67 -4 -12 -88 97 -88 114 0 16 10 7 50 -47z
m435 35 c0 -7 -6 -15 -12 -17 -8 -3 -13 4 -13 17 0 13 5 20 13 18 6 -3 12 -11
12 -18z m-65 2 c0 -19 -227 -172 -255 -172 -9 0 -19 -9 -22 -20 -9 -33 -36
-19 -46 23 -11 44 -1 60 19 33 14 -19 14 -19 34 2 12 12 24 22 29 22 4 0 42
24 83 54 42 30 84 56 94 59 31 8 64 7 64 -1z m1130 4 c0 -2 -7 -7 -16 -10 -8
-3 -12 -2 -9 4 6 10 25 14 25 6z m-1628 -43 c27 -26 38 -63 19 -63 -13 0 -61
59 -61 76 0 21 10 17 42 -13z m77 -7 c39 -62 20 -79 -22 -19 -24 34 -27 53 -7
53 5 0 18 -15 29 -34z m615 25 c7 -10 -18 -34 -27 -25 -7 8 3 34 13 34 5 0 11
-4 14 -9z m221 -11 c0 -18 -16 -22 -35 -10 -13 9 -13 11 0 20 19 12 35 8 35
-10z m-2155 -4 c0 -18 -27 -39 -40 -31 -14 9 -13 32 3 38 23 10 37 7 37 -7z
m1855 -62 c-22 -16 -51 -39 -77 -62 -14 -12 -20 -12 -33 -2 -22 18 -18 30 8
30 13 0 32 9 42 20 10 11 24 20 30 20 7 0 16 8 19 17 5 13 9 14 19 4 9 -10 8
-15 -8 -27z m-1234 -52 c6 -49 -1 -65 -24 -56 -12 4 -17 18 -17 48 0 71 31 77
41 8z m1532 -18 c2 -13 1 -24 -3 -24 -13 0 -42 39 -36 49 11 16 34 2 39 -25z
m-1481 -10 c4 -36 -4 -50 -22 -39 -11 7 -14 58 -3 68 14 14 21 6 25 -29z m48
-24 c0 -40 -13 -53 -24 -24 -7 19 3 64 15 64 5 0 9 -18 9 -40z m-796 -9 c169
-110 396 -193 566 -207 79 -7 111 -17 97 -31 -21 -20 -239 9 -357 48 -133 43
-390 180 -390 208 0 9 11 21 18 21 3 0 33 -18 66 -39z m143 13 c-9 -9 -28 6
-21 18 4 6 10 6 17 -1 6 -6 8 -13 4 -17z m701 -25 l-4 -34 -13 27 c-8 15 -11
35 -7 44 11 28 28 1 24 -37z m52 32 c14 -27 13 -51 -4 -51 -15 0 -26 21 -26
51 0 25 16 24 30 0z m864 13 c39 -15 5 -41 -103 -79 -24 -8 -50 -15 -57 -15
-21 0 -17 16 9 28 12 6 45 25 72 41 56 33 57 33 79 25z m486 -35 c0 -5 -8 -29
-19 -52 -10 -23 -21 -50 -24 -59 -6 -16 -57 -27 -57 -13 0 7 39 63 57 82 6 7
15 22 18 33 7 21 25 28 25 9z m-1910 -14 c29 -15 40 -35 20 -35 -21 0 -71 31
-65 40 8 13 11 13 45 -5z m1840 -25 c0 -24 -41 -53 -71 -48 -36 5 -32 22 8 46
47 27 63 28 63 2z m-1648 -35 c6 -14 9 -27 6 -30 -3 -3 -28 0 -57 6 -75 16
-65 31 32 48 4 0 13 -10 19 -24z m1021 13 c31 -15 33 -21 11 -39 -14 -11 -18
-10 -30 5 -8 12 -21 17 -34 13 -25 -6 -26 1 -2 19 21 17 22 17 55 2z m-965
-27 c3 -16 -1 -22 -10 -19 -7 3 -15 15 -16 27 -3 16 1 22 10 19 7 -3 15 -15
16 -27z m55 9 c6 -24 -8 -36 -17 -14 -8 22 -7 34 3 34 5 0 11 -9 14 -20z m460
-38 c18 -16 23 -42 8 -42 -19 0 -64 47 -57 59 8 12 19 8 49 -17z m327 12 c0
-17 -22 -14 -28 4 -2 7 3 12 12 12 9 0 16 -7 16 -16z m570 12 c0 -2 -7 -9 -15
-16 -13 -11 -14 -10 -9 4 5 14 24 23 24 12z m-1150 -21 c0 -8 -7 -15 -15 -15
-8 0 -15 7 -15 15 0 8 7 15 15 15 8 0 15 -7 15 -15z m168 -9 c3 -13 -1 -17
-14 -14 -11 2 -20 11 -22 22 -3 13 1 17 14 14 11 -2 20 -11 22 -22z m-83 -6
c0 -22 -39 -19 -43 3 -3 15 1 18 20 15 12 -2 23 -10 23 -18z m575 -4 c-13 -17
-109 -39 -142 -33 -22 3 -21 4 6 15 16 7 49 14 74 17 24 2 47 6 50 9 12 13 24
5 12 -8z m-672 -48 c-5 -15 -48 -24 -48 -10 0 14 12 22 33 22 10 0 17 -5 15
-12z m117 -28 c2 -25 -2 -33 -22 -41 -34 -13 -34 -12 -27 16 4 15 2 25 -5 25
-6 0 -11 7 -11 16 0 11 6 13 19 9 11 -3 22 -1 26 5 10 16 18 5 20 -30z m80 3
c12 -29 13 -38 3 -45 -18 -11 -26 -10 -34 4 -14 22 -6 78 11 78 3 0 12 -17 20
-37z m73 -6 c2 -18 -1 -27 -11 -27 -15 0 -27 20 -27 47 0 27 35 9 38 -20z
m-328 -10 c0 -21 -39 -40 -56 -26 -19 15 -18 27 4 32 33 9 52 7 52 -6z m108
-4 c5 -18 -45 -40 -60 -25 -8 8 -8 15 2 27 15 18 51 16 58 -2z m427 -114 c9
-14 7 -16 -42 -24 -35 -5 -43 -4 -43 8 0 9 6 18 13 20 22 10 66 7 72 -4z
m-597 -19 c17 -11 32 -24 32 -28 0 -23 -23 -71 -36 -76 -27 -10 -15 -35 18
-38 17 -2 33 -9 36 -16 3 -11 -6 -12 -44 -7 -27 4 -53 11 -57 15 -5 4 3 24 17
45 33 49 34 75 2 75 -31 0 -50 22 -34 38 16 16 28 15 66 -8z m206 -1 c20 -15
26 -29 26 -57 0 -38 -32 -102 -50 -102 -15 0 -12 9 10 37 17 22 18 28 7 56 -8
18 -25 38 -40 45 -27 13 -33 23 -20 35 12 13 40 7 67 -14z m187 9 c1 -7 0 -44
-1 -83 -2 -92 -20 -111 -20 -22 0 51 -4 69 -15 73 -18 7 -20 30 -2 37 22 9 37
7 38 -5z m187 -44 c20 -6 23 -12 20 -48 -3 -34 -7 -42 -31 -50 -21 -8 -31 -6
-44 7 -23 23 -3 47 22 27 13 -10 18 -11 28 -1 9 10 8 15 -7 26 -10 8 -23 16
-29 18 -6 2 -7 9 -3 15 8 14 12 14 44 6z"/>
<path d="M2383 4614 c8 -47 13 -51 35 -31 12 11 22 13 28 7 12 -12 66 -16 82
-6 21 12 13 42 -13 54 -14 7 -51 12 -82 12 l-56 0 6 -36z"/>
<path d="M3376 4371 c-3 -5 1 -14 9 -21 13 -10 15 -9 15 9 0 21 -14 28 -24 12z"/>
<path d="M3310 4356 c0 -21 21 -31 31 -15 14 22 11 29 -11 29 -11 0 -20 -6
-20 -14z"/>
<path d="M1392 4178 c3 -7 13 -15 22 -16 12 -3 17 1 14 10 -3 7 -13 15 -22 16
-12 3 -17 -1 -14 -10z"/>
<path d="M3720 4015 c-8 -9 -8 -15 -2 -15 12 0 26 19 19 26 -2 2 -10 -2 -17
-11z"/>
<path d="M3757 3973 c-4 -3 -7 -11 -7 -17 0 -6 5 -5 12 2 6 6 9 14 7 17 -3 3
-9 2 -12 -2z"/>
<path d="M3530 3936 c-16 -44 -58 -93 -90 -106 -41 -17 -38 -30 6 -30 l37 0
-7 -40 c-16 -102 -66 -190 -107 -190 -18 0 -72 -75 -67 -92 2 -6 40 25 83 68
65 64 83 88 94 129 8 28 20 59 28 70 7 11 13 31 13 45 0 14 5 32 10 40 9 13
11 13 20 0 5 -8 10 -25 10 -37 0 -13 4 -23 9 -23 12 0 11 42 -1 115 -13 73
-24 87 -38 51z"/>
<path d="M3300 3926 c0 -8 5 -18 10 -21 6 -3 10 1 10 9 0 8 -4 18 -10 21 -5 3
-10 -1 -10 -9z"/>
<path d="M3705 3903 c-25 -6 -45 -22 -45 -35 0 -6 23 -7 59 -3 54 6 60 5 66
-14 9 -28 23 -27 35 3 5 13 14 27 19 31 24 14 8 21 -51 22 -35 0 -72 -2 -83
-4z"/>
<path d="M3630 3824 c-13 -22 -11 -30 10 -70 14 -24 29 -43 35 -41 18 6 17 71
-1 105 -21 39 -27 40 -44 6z"/>
<path d="M3825 3734 c-60 -54 -59 -71 2 -34 28 16 71 76 61 85 -2 2 -30 -21
-63 -51z"/>
<path d="M3382 3714 c-15 -54 -15 -75 -2 -54 5 8 10 25 10 37 0 12 10 29 22
37 12 9 20 16 18 17 -3 0 -12 2 -21 4 -11 2 -19 -10 -27 -41z"/>
<path d="M3580 3717 c0 -14 -62 -87 -157 -182 -34 -34 -70 -80 -81 -102 -11
-22 -28 -45 -36 -52 -29 -24 -17 -29 59 -26 59 3 77 0 83 -12 7 -12 23 -2 85
52 43 36 77 71 77 77 0 6 -8 4 -18 -5 -20 -18 -70 -25 -90 -13 -9 5 -9 13 -2
26 15 28 -8 37 -33 12 -17 -18 -18 -23 -7 -37 12 -14 11 -18 -1 -26 -8 -5 -17
-9 -21 -9 -5 0 -8 -6 -8 -14 0 -11 9 -13 35 -9 36 6 49 -9 18 -21 -20 -8 -133
4 -133 14 0 4 7 13 15 20 9 7 14 19 11 26 -16 41 118 122 190 115 12 -1 24 5
27 13 4 10 18 16 36 16 26 0 31 -5 40 -37 16 -55 13 -105 -5 -131 -10 -14 -13
-32 -10 -45 4 -12 9 -44 12 -72 3 -27 9 -53 13 -58 4 -4 4 23 0 60 -4 42 -3
75 3 88 6 10 10 46 9 78 -2 69 9 87 53 87 30 0 84 27 112 55 24 23 15 26 -18
5 -46 -28 -114 -26 -158 4 -32 22 -38 22 -72 10 -20 -7 -48 -20 -63 -30 -30
-19 -43 -14 -20 9 8 9 15 20 15 26 0 5 18 20 40 32 42 24 44 27 34 53 -7 19
-34 21 -34 3z"/>
<path d="M3724 3708 c-11 -14 -29 -27 -39 -29 -20 -4 -34 -29 -15 -29 6 0 30
-9 54 -20 36 -16 49 -17 79 -8 59 18 46 35 -22 30 -66 -5 -85 9 -50 37 12 9
20 23 17 31 -3 9 -10 5 -24 -12z"/>
<path d="M3240 3385 c-21 -22 -28 -35 -19 -35 7 0 27 16 42 35 36 45 21 45
-23 0z"/>
<path d="M4620 2534 c-22 -20 -38 -39 -36 -41 7 -7 96 56 96 67 0 19 -20 10
-60 -26z"/>
<path d="M3420 2464 c0 -8 5 -12 10 -9 6 3 10 10 10 16 0 5 -4 9 -10 9 -5 0
-10 -7 -10 -16z"/>
<path d="M3010 2340 c0 -11 5 -20 10 -20 6 0 10 9 10 20 0 11 -4 20 -10 20 -5
0 -10 -9 -10 -20z"/>
<path d="M3430 2310 c0 -5 5 -10 10 -10 6 0 10 5 10 10 0 6 -4 10 -10 10 -5 0
-10 -4 -10 -10z"/>
<path d="M2985 2270 c-4 -12 -5 -24 -2 -27 3 -2 8 5 12 17 4 12 5 24 2 27 -3
2 -8 -5 -12 -17z"/>
<path d="M3435 2250 c-3 -5 1 -10 10 -10 9 0 13 5 10 10 -3 6 -8 10 -10 10 -2
0 -7 -4 -10 -10z"/>
<path d="M3515 2200 c-3 -6 1 -7 9 -4 18 7 21 14 7 14 -6 0 -13 -4 -16 -10z"/>
<path d="M3540 2170 c0 -5 5 -10 11 -10 5 0 7 5 4 10 -3 6 -8 10 -11 10 -2 0
-4 -4 -4 -10z"/>
<path d="M3550 2140 c-8 -5 -10 -10 -5 -10 6 0 17 5 25 10 8 5 11 10 5 10 -5
0 -17 -5 -25 -10z"/>
<path d="M3977 2109 c-24 -14 -47 -62 -47 -99 0 -20 11 -42 33 -67 l34 -36 60
12 c41 9 66 10 79 3 11 -5 28 -6 39 -1 11 4 57 8 103 8 88 1 133 16 152 50 13
25 13 61 0 61 -5 0 -10 -5 -10 -10 0 -6 -11 -22 -25 -35 -18 -19 -35 -25 -70
-25 -48 0 -48 0 -45 62 1 28 -5 44 -24 63 -33 33 -67 36 -36 3 41 -44 17 -128
-37 -128 -18 0 -63 38 -63 53 0 13 27 7 40 -7 6 -8 18 -12 26 -9 18 7 18 47
-1 63 -8 7 -15 19 -15 26 0 8 -8 14 -18 14 -22 0 -52 -30 -52 -52 0 -8 -7 -29
-16 -46 -12 -25 -22 -32 -44 -32 -23 0 -30 7 -44 40 -19 49 -19 50 -3 50 6 0
20 -14 29 -30 9 -17 22 -30 28 -30 20 0 10 48 -17 79 -30 34 -31 35 -56 20z"/>
<path d="M4060 2106 c0 -9 5 -16 10 -16 6 0 10 4 10 9 0 6 -4 13 -10 16 -5 3
-10 -1 -10 -9z"/>
<path d="M4304 2105 c-4 -8 1 -26 9 -39 9 -13 13 -33 10 -45 -6 -23 7 -27 38
-11 27 15 25 61 -4 88 -27 26 -45 28 -53 7z"/>
<path d="M3670 1875 c0 -8 5 -15 10 -15 6 0 10 7 10 15 0 8 -4 15 -10 15 -5 0
-10 -7 -10 -15z"/>
<path d="M3595 1870 c-3 -5 3 -18 14 -29 10 -10 21 -27 23 -37 5 -26 28 -30
28 -4 0 49 -46 100 -65 70z"/>
<path d="M3962 1868 c-19 -19 -14 -48 11 -57 19 -7 22 -15 22 -67 0 -58 1 -59
29 -62 41 -5 47 6 36 73 -7 40 -6 63 1 71 14 17 3 34 -21 34 -10 0 -22 5 -25
10 -8 14 -38 13 -53 -2z"/>
<path d="M3787 1853 c-14 -13 -6 -34 16 -43 l22 -9 -22 -7 c-28 -8 -30 -30 -3
-39 18 -6 60 9 60 22 0 3 -8 11 -17 18 -15 11 -15 13 5 24 31 16 17 41 -22 41
-18 0 -36 -3 -39 -7z"/>
<path d="M4192 1818 c2 -24 8 -43 13 -43 6 0 11 19 13 43 3 33 0 42 -13 42
-13 0 -16 -9 -13 -42z"/>
<path d="M4480 1845 c-20 -24 -5 -45 29 -42 41 5 65 25 50 43 -15 19 -63 18
-79 -1z"/>
<path d="M3216 1843 c-9 -10 -7 -66 4 -83 11 -17 86 -18 103 -1 19 19 -7 35
-32 19 -19 -11 -24 -11 -37 6 -8 11 -14 28 -14 37 0 20 -14 32 -24 22z"/>
<path d="M2753 1754 c-21 -31 -41 -62 -44 -68 -26 -49 -39 -80 -39 -95 0 -9
-7 -26 -15 -37 -16 -22 -20 -64 -5 -64 5 0 12 11 16 25 6 24 24 35 24 15 0 -5
7 -10 15 -10 11 0 13 10 8 48 -5 44 -2 53 35 110 38 59 60 117 49 129 -3 2
-23 -21 -44 -53z"/>
<path d="M4485 1780 c3 -5 8 -10 11 -10 2 0 4 5 4 10 0 6 -5 10 -11 10 -5 0
-7 -4 -4 -10z"/>
<path d="M2832 1400 c0 -14 2 -19 5 -12 2 6 2 18 0 25 -3 6 -5 1 -5 -13z"/>
<path d="M3995 1300 c-17 -7 -15 -9 13 -9 17 -1 32 4 32 9 0 12 -17 12 -45 0z"/>
<path d="M2240 4105 c0 -10 7 -15 18 -13 21 4 19 22 -2 26 -10 2 -16 -3 -16
-13z"/>
<path d="M2041 4081 c-15 -9 -9 -49 15 -107 13 -32 34 -46 34 -24 0 6 7 10 15
10 8 0 15 -7 15 -15 0 -20 20 -19 36 3 19 25 17 29 -16 36 -36 7 -78 48 -82
82 -2 17 -7 21 -17 15z"/>
<path d="M1940 4050 c0 -5 7 -7 15 -4 8 4 15 8 15 10 0 2 -7 4 -15 4 -8 0 -15
-4 -15 -10z"/>
<path d="M1904 4035 c-18 -14 -18 -14 4 -8 12 3 22 9 22 14 0 12 -3 11 -26 -6z"/>
<path d="M2356 4011 c-3 -5 1 -14 8 -20 16 -13 32 2 21 19 -8 12 -22 13 -29 1z"/>
<path d="M2330 3925 c0 -8 5 -15 10 -15 6 0 10 7 10 15 0 8 -4 15 -10 15 -5 0
-10 -7 -10 -15z"/>
<path d="M2275 3910 c-7 -12 2 -30 16 -30 12 0 12 27 0 35 -5 3 -12 1 -16 -5z"/>
<path d="M1575 3720 c-8 -13 4 -32 16 -25 12 8 12 35 0 35 -6 0 -13 -4 -16
-10z"/>
<path d="M2710 3830 c-25 -16 -53 -29 -62 -29 -19 -1 -25 -21 -7 -21 13 0 70
33 108 62 36 27 12 20 -39 -12z"/>
<path d="M2927 3843 c-4 -3 -7 -11 -7 -17 0 -6 5 -5 12 2 6 6 9 14 7 17 -3 3
-9 2 -12 -2z"/>
<path d="M2575 3780 c3 -5 8 -10 11 -10 2 0 4 5 4 10 0 6 -5 10 -11 10 -5 0
-7 -4 -4 -10z"/>
<path d="M2900 3717 c0 -31 4 -57 10 -57 5 0 7 22 3 53 -8 71 -13 72 -13 4z"/>
<path d="M2840 3684 c0 -8 5 -12 10 -9 6 3 10 10 10 16 0 5 -4 9 -10 9 -5 0
-10 -7 -10 -16z"/>
<path d="M3130 3614 c0 -8 5 -12 10 -9 6 3 10 10 10 16 0 5 -4 9 -10 9 -5 0
-10 -7 -10 -16z"/>
<path d="M3030 3603 c1 -22 34 -63 50 -63 9 0 7 8 -4 25 -9 13 -16 31 -16 40
0 8 -7 15 -15 15 -8 0 -15 -8 -15 -17z"/>
<path d="M905 3870 c-3 -5 -1 -10 4 -10 6 0 11 5 11 10 0 6 -2 10 -4 10 -3 0
-8 -4 -11 -10z"/>
<path d="M381 2734 c0 -11 3 -14 6 -6 3 7 2 16 -1 19 -3 4 -6 -2 -5 -13z"/>
<path d="M372 2580 c0 -14 2 -19 5 -12 2 6 2 18 0 25 -3 6 -5 1 -5 -13z"/>
<path d="M371 2504 c0 -11 3 -14 6 -6 3 7 2 16 -1 19 -3 4 -6 -2 -5 -13z"/>
<path d="M1399 3364 c-86 -18 -142 -38 -147 -52 -5 -17 69 -15 143 3 33 8 73
14 88 15 21 0 28 4 25 16 -5 27 -38 32 -109 18z"/>
<path d="M1675 3311 c-3 -5 -1 -12 5 -16 12 -7 30 2 30 16 0 12 -27 12 -35 0z"/>
<path d="M1690 3190 c0 -5 5 -10 11 -10 5 0 7 5 4 10 -3 6 -8 10 -11 10 -2 0
-4 -4 -4 -10z"/>
<path d="M2696 3357 c3 -10 9 -15 12 -12 3 3 0 11 -7 18 -10 9 -11 8 -5 -6z"/>
<path d="M3290 2998 c0 -7 4 -19 9 -27 11 -17 25 3 17 24 -7 18 -26 20 -26 3z"/>
<path d="M2106 3074 c-9 -24 -7 -28 9 -14 17 14 20 30 6 30 -5 0 -12 -7 -15
-16z"/>
<path d="M1941 2489 c-7 -12 -10 -23 -8 -26 3 -3 11 5 17 17 6 12 10 23 8 25
-2 2 -10 -5 -17 -16z"/>
<path d="M1975 2470 c-3 -5 -1 -10 4 -10 6 0 11 5 11 10 0 6 -2 10 -4 10 -3 0
-8 -4 -11 -10z"/>
<path d="M2644 2608 c-44 -46 -74 -87 -74 -101 0 -8 45 44 103 119 29 37 15
28 -29 -18z"/>
<path d="M2532 2608 c-18 -59 -23 -88 -13 -88 9 0 26 38 36 81 10 39 -12 45
-23 7z"/>
<path d="M2546 2475 c-3 -8 -1 -15 4 -15 6 0 10 7 10 15 0 8 -2 15 -4 15 -2 0
-6 -7 -10 -15z"/>
<path d="M2445 2400 c-3 -5 -1 -10 4 -10 6 0 11 5 11 10 0 6 -2 10 -4 10 -3 0
-8 -4 -11 -10z"/>
<path d="M3320 2412 c0 -4 9 -13 20 -20 22 -13 27 -3 8 16 -14 14 -28 16 -28
4z"/>
<path d="M4785 1460 c4 -6 11 -8 16 -5 14 9 11 15 -7 15 -8 0 -12 -5 -9 -10z"/>
<path d="M4710 1300 c0 -5 5 -10 10 -10 6 0 10 5 10 10 0 6 -4 10 -10 10 -5 0
-10 -4 -10 -10z"/>
<path d="M2975 970 c3 -5 8 -10 11 -10 2 0 4 5 4 10 0 6 -5 10 -11 10 -5 0 -7
-4 -4 -10z"/>
<path d="M2270 5060 c-9 -6 -10 -10 -3 -10 6 0 15 5 18 10 8 12 4 12 -15 0z"/>
<path d="M2041 4949 c-24 -22 -40 -43 -36 -47 3 -4 11 1 16 11 6 9 16 17 22
17 7 0 21 14 30 30 10 17 16 30 14 30 -2 0 -23 -18 -46 -41z"/>
<path d="M2090 4945 c-7 -8 -8 -15 -2 -15 5 0 15 7 22 15 7 8 8 15 2 15 -5 0
-15 -7 -22 -15z"/>
<path d="M1945 4880 c-3 -5 -1 -10 4 -10 6 0 11 5 11 10 0 6 -2 10 -4 10 -3 0
-8 -4 -11 -10z"/>
<path d="M1900 4859 c0 -5 5 -7 10 -4 6 3 10 8 10 11 0 2 -4 4 -10 4 -5 0 -10
-5 -10 -11z"/>
<path d="M3443 4723 c13 -13 137 -61 137 -53 0 5 -21 16 -47 26 -27 9 -52 21
-57 26 -12 9 -42 11 -33 1z"/>
<path d="M3700 4601 c24 -20 40 -26 40 -16 0 2 -15 12 -32 20 l-33 16 25 -20z"/>
<path d="M3765 4560 c3 -5 11 -10 16 -10 6 0 7 5 4 10 -3 6 -11 10 -16 10 -6
0 -7 -4 -4 -10z"/>
<path d="M3817 4529 c7 -7 15 -10 18 -7 3 3 -2 9 -12 12 -14 6 -15 5 -6 -5z"/>
<path d="M5073 1763 c-16 -6 -17 -33 -1 -33 6 0 8 3 5 7 -4 3 -2 12 4 20 12
14 11 14 -8 6z"/>
<path d="M4850 1695 c-7 -9 -8 -15 -2 -15 5 0 12 7 16 15 3 8 4 15 2 15 -2 0
-9 -7 -16 -15z"/>
<path d="M5090 1679 c0 -5 5 -7 10 -4 6 3 10 8 10 11 0 2 -4 4 -10 4 -5 0 -10
-5 -10 -11z"/>
<path d="M4977 1659 c7 -7 15 -10 18 -7 3 3 -2 9 -12 12 -14 6 -15 5 -6 -5z"/>
<path d="M4850 1641 c0 -6 4 -13 10 -16 6 -3 7 1 4 9 -7 18 -14 21 -14 7z"/>
<path d="M4890 1640 c0 -5 5 -10 11 -10 5 0 7 5 4 10 -3 6 -8 10 -11 10 -2 0
-4 -4 -4 -10z"/>
<path d="M4945 1640 c-3 -5 -1 -10 4 -10 6 0 11 5 11 10 0 6 -2 10 -4 10 -3 0
-8 -4 -11 -10z"/>
<path d="M4943 1598 c3 -9 1 -19 -6 -22 -9 -3 -9 -5 0 -5 18 -1 23 13 11 29
-8 12 -9 12 -5 -2z"/>
<path d="M4885 1580 c-3 -5 -1 -10 4 -10 6 0 11 5 11 10 0 6 -2 10 -4 10 -3 0
-8 -4 -11 -10z"/>
</g>
</svg>
